<svg xmlns="http://www.w3.org/2000/svg" xmlns:xlink="http://www.w3.org/1999/xlink" width="500" zoomAndPan="magnify" viewBox="0 0 375 374.999991" height="500" preserveAspectRatio="xMidYMid meet" version="1.0"><defs><g/><clipPath id="546c90fe6e"><path d="M 49.5 147.042969 L 325.488281 147.042969 L 325.488281 236.269531 L 49.5 236.269531 Z M 49.5 147.042969 " clip-rule="nonzero"/></clipPath><clipPath id="31d13d65ed"><path d="M 121.566406 222.777344 L 253.433594 222.777344 L 253.433594 244.496094 L 121.566406 244.496094 Z M 121.566406 222.777344 " clip-rule="nonzero"/></clipPath><clipPath id="0ee0238390"><path d="M 0.566406 0.777344 L 132.433594 0.777344 L 132.433594 22.496094 L 0.566406 22.496094 Z M 0.566406 0.777344 " clip-rule="nonzero"/></clipPath><clipPath id="01f48cd8c9"><rect x="0" width="133" y="0" height="23"/></clipPath><clipPath id="0db70255d2"><path d="M 0.441406 9 L 45.558594 9 L 45.558594 60 L 0.441406 60 Z M 0.441406 9 " clip-rule="nonzero"/></clipPath><clipPath id="3c1644e2e7"><rect x="0" width="46" y="0" height="71"/></clipPath><clipPath id="15c4e0bdee"><path d="M 0.078125 9 L 45.679688 9 L 45.679688 60 L 0.078125 60 Z M 0.078125 9 " clip-rule="nonzero"/></clipPath><clipPath id="61b9a04b4e"><rect x="0" width="46" y="0" height="71"/></clipPath><clipPath id="d9b7b6b5d7"><path d="M 0.121094 9 L 45.238281 9 L 45.238281 60 L 0.121094 60 Z M 0.121094 9 " clip-rule="nonzero"/></clipPath><clipPath id="418ef3c975"><rect x="0" width="46" y="0" height="71"/></clipPath><clipPath id="50baa18105"><path d="M 185 164 L 208 164 L 208 210 L 185 210 Z M 185 164 " clip-rule="nonzero"/></clipPath><clipPath id="280a9e3e67"><path d="M 175.074219 170.472656 L 205.300781 159.230469 L 219.945312 198.59375 L 189.71875 209.839844 Z M 175.074219 170.472656 " clip-rule="nonzero"/></clipPath><clipPath id="cd78b66584"><path d="M 175.074219 170.472656 L 205.300781 159.230469 L 219.945312 198.59375 L 189.71875 209.839844 Z M 175.074219 170.472656 " clip-rule="nonzero"/></clipPath><clipPath id="e8164c7d00"><path d="M 0.121094 9 L 45.71875 9 L 45.71875 60 L 0.121094 60 Z M 0.121094 9 " clip-rule="nonzero"/></clipPath><clipPath id="615c504196"><rect x="0" width="46" y="0" height="71"/></clipPath><clipPath id="e56b997237"><path d="M 0.121094 9 L 45 9 L 45 60 L 0.121094 60 Z M 0.121094 9 " clip-rule="nonzero"/></clipPath><clipPath id="4956b07ee9"><rect x="0" width="46" y="0" height="71"/></clipPath></defs><g clip-path="url(#546c90fe6e)"><path stroke-linecap="butt" transform="matrix(0.75, 0, 0, 0.75, 49.500253, 147.044083)" fill="none" stroke-linejoin="miter" d="M -0.000337666 -0.00148586 L 367.984085 -0.00148586 L 367.984085 118.96728 L -0.000337666 118.96728 Z M -0.000337666 -0.00148586 " stroke="#ffffff" stroke-width="8" stroke-opacity="1" stroke-miterlimit="4"/></g><g clip-path="url(#31d13d65ed)"><g transform="matrix(1, 0, 0, 1, 121, 222)"><g clip-path="url(#01f48cd8c9)"><g clip-path="url(#0ee0238390)"><path fill="#000000" d="M 0.566406 0.777344 L 132.402344 0.777344 L 132.402344 22.496094 L 0.566406 22.496094 Z M 0.566406 0.777344 " fill-opacity="1" fill-rule="nonzero"/></g></g></g></g><g transform="matrix(1, 0, 0, 1, 235, 158)"><g clip-path="url(#3c1644e2e7)"><g clip-path="url(#0db70255d2)"><g fill="#000000" fill-opacity="1"><g transform="translate(1.600819, 56.484704)"><g><path d="M 43.289062 -43.742188 C 43.289062 -41.925781 43.332031 -40.09375 43.425781 -38.253906 C 43.523438 -36.285156 43.523438 -34.328125 43.425781 -32.378906 L 43.285156 -29.6875 C 43.242188 -28.871094 43.242188 -28.039062 43.285156 -27.199219 L 43.289062 -27.132812 L 43.289062 -27.066406 C 43.289062 -26.246094 43.050781 -25.539062 42.574219 -24.945312 C 42.039062 -24.277344 41.328125 -23.886719 40.4375 -23.773438 C 39.566406 -23.664062 38.566406 -23.625 37.4375 -23.652344 C 36.480469 -23.671875 35.582031 -23.671875 34.742188 -23.652344 C 34.433594 -23.640625 34.199219 -23.625 34.039062 -23.59375 L 34.03125 -23.597656 C 34.140625 -23.636719 34.257812 -23.695312 34.378906 -23.773438 C 34.425781 -23.804688 34.460938 -23.832031 34.480469 -23.851562 C 34.460938 -23.832031 34.433594 -23.800781 34.394531 -23.761719 C 34.484375 -23.859375 34.546875 -23.953125 34.585938 -24.042969 C 34.589844 -24.054688 34.59375 -24.058594 34.59375 -24.058594 C 34.589844 -24.042969 34.582031 -24.019531 34.574219 -23.988281 L 32.023438 -24.558594 L 34.617188 -24.230469 C 34.582031 -23.9375 34.539062 -23.199219 34.496094 -22.019531 C 34.453125 -20.792969 34.429688 -19.328125 34.429688 -17.617188 L 34.429688 -2.652344 C 34.429688 -2.125 34.433594 -1.722656 34.445312 -1.441406 C 34.449219 -1.328125 34.453125 -1.25 34.457031 -1.199219 C 34.449219 -1.304688 34.417969 -1.4375 34.363281 -1.59375 L 34.5 -1.191406 L 34.5 -0.765625 C 34.5 0.109375 34.25 0.855469 33.75 1.464844 C 33.121094 2.234375 32.289062 2.617188 31.253906 2.617188 L 11.789062 2.617188 C 10.828125 2.617188 10.035156 2.269531 9.410156 1.574219 C 8.921875 1.035156 8.640625 0.363281 8.558594 -0.4375 L 8.546875 -0.566406 L 8.546875 -0.699219 C 8.546875 -1.316406 8.558594 -2.355469 8.582031 -3.808594 C 8.605469 -5.257812 8.640625 -6.894531 8.6875 -8.71875 L 8.824219 -14.125 L 8.929688 -18.753906 C 8.949219 -19.925781 8.945312 -20.636719 8.914062 -20.882812 C 8.804688 -21.710938 8.761719 -22.546875 8.792969 -23.386719 C 8.789062 -23.328125 8.800781 -23.289062 8.824219 -23.265625 L 10.675781 -25.113281 L 8.9375 -23.160156 C 8.785156 -23.292969 8.636719 -23.386719 8.484375 -23.433594 C 8.191406 -23.535156 7.886719 -23.597656 7.578125 -23.625 C 7.21875 -23.664062 6.671875 -23.683594 5.929688 -23.683594 L 2.652344 -23.683594 C 1.664062 -23.683594 0.859375 -24.03125 0.234375 -24.726562 C -0.316406 -25.339844 -0.59375 -26.097656 -0.59375 -27 L -0.59375 -27.941406 C -0.59375 -28.542969 -0.605469 -29.214844 -0.625 -29.953125 C -0.648438 -30.652344 -0.679688 -31.175781 -0.714844 -31.523438 L -0.722656 -31.574219 L -0.726562 -31.625 C -0.773438 -32.304688 -0.824219 -33.277344 -0.871094 -34.539062 C -0.917969 -35.804688 -0.941406 -37.117188 -0.941406 -38.476562 L -0.941406 -43.460938 C -0.941406 -43.945312 -0.835938 -44.394531 -0.625 -44.816406 C -0.394531 -45.28125 -0.0585938 -45.660156 0.378906 -45.953125 C 0.925781 -46.316406 1.566406 -46.496094 2.300781 -46.496094 L 41.148438 -46.496094 L 41.773438 -46.1875 C 42.210938 -45.96875 42.5625 -45.65625 42.832031 -45.253906 C 43.136719 -44.796875 43.289062 -44.292969 43.289062 -43.742188 Z M 38.054688 -43.742188 C 38.054688 -43.238281 38.195312 -42.773438 38.476562 -42.351562 C 38.722656 -41.984375 39.042969 -41.703125 39.433594 -41.507812 L 39.363281 -41.542969 L 40.53125 -43.882812 L 40.53125 -41.265625 L 2.300781 -41.265625 C 2.621094 -41.265625 2.949219 -41.375 3.28125 -41.601562 C 3.617188 -41.820312 3.871094 -42.113281 4.054688 -42.476562 C 4.210938 -42.792969 4.289062 -43.121094 4.289062 -43.460938 L 4.289062 -38.476562 C 4.289062 -37.183594 4.3125 -35.9375 4.359375 -34.738281 C 4.402344 -33.53125 4.449219 -32.621094 4.492188 -32 L 1.882812 -31.8125 L 4.484375 -32.101562 C 4.539062 -31.613281 4.578125 -30.949219 4.601562 -30.113281 C 4.628906 -29.320312 4.640625 -28.59375 4.640625 -27.941406 L 4.640625 -27 C 4.640625 -27.433594 4.46875 -27.84375 4.125 -28.226562 C 3.710938 -28.6875 3.21875 -28.917969 2.652344 -28.917969 L 5.929688 -28.917969 C 6.863281 -28.917969 7.570312 -28.890625 8.050781 -28.835938 C 8.761719 -28.773438 9.460938 -28.625 10.140625 -28.398438 C 10.96875 -28.125 11.726562 -27.679688 12.410156 -27.070312 L 12.46875 -27.019531 L 12.523438 -26.964844 C 13.570312 -25.917969 14.070312 -24.667969 14.019531 -23.214844 C 14.003906 -22.660156 14.03125 -22.101562 14.105469 -21.53125 C 14.167969 -21.039062 14.1875 -20.074219 14.160156 -18.636719 L 14.058594 -13.988281 L 13.917969 -8.582031 C 13.871094 -6.777344 13.835938 -5.160156 13.8125 -3.726562 C 13.789062 -2.296875 13.777344 -1.289062 13.777344 -0.699219 L 11.164062 -0.699219 L 13.765625 -0.957031 C 13.730469 -1.292969 13.578125 -1.617188 13.296875 -1.925781 C 12.882812 -2.386719 12.378906 -2.617188 11.789062 -2.617188 L 31.253906 -2.617188 C 30.636719 -2.617188 30.117188 -2.359375 29.699219 -1.847656 C 29.410156 -1.496094 29.265625 -1.132812 29.265625 -0.765625 L 31.882812 -0.765625 L 29.398438 0.0585938 C 29.265625 -0.347656 29.195312 -1.25 29.195312 -2.652344 L 29.195312 -17.617188 C 29.195312 -19.390625 29.21875 -20.925781 29.265625 -22.210938 C 29.316406 -23.542969 29.371094 -24.433594 29.425781 -24.882812 L 29.441406 -25.003906 L 29.46875 -25.125 C 29.660156 -25.984375 29.996094 -26.6875 30.484375 -27.238281 C 30.820312 -27.613281 31.152344 -27.910156 31.476562 -28.128906 C 32.175781 -28.59375 33.21875 -28.84375 34.605469 -28.882812 C 35.53125 -28.90625 36.515625 -28.90625 37.558594 -28.882812 C 38.429688 -28.863281 39.171875 -28.890625 39.789062 -28.964844 C 39.273438 -28.902344 38.839844 -28.652344 38.488281 -28.214844 C 38.199219 -27.851562 38.054688 -27.472656 38.054688 -27.066406 L 40.671875 -27.066406 L 38.058594 -26.9375 C 38.007812 -27.957031 38.007812 -28.964844 38.058594 -29.960938 L 38.199219 -32.640625 C 38.289062 -34.414062 38.289062 -36.199219 38.199219 -37.996094 C 38.105469 -39.921875 38.054688 -41.839844 38.054688 -43.742188 Z M 38.054688 -43.742188 "/></g></g></g></g><g fill="#ffffff" fill-opacity="1"><g transform="translate(1.600819, 56.484704)"><g><path d="M 40.671875 -43.75 C 40.671875 -41.882812 40.71875 -40.007812 40.8125 -38.125 C 40.90625 -36.238281 40.90625 -34.367188 40.8125 -32.515625 C 40.769531 -31.628906 40.722656 -30.734375 40.671875 -29.828125 C 40.628906 -28.921875 40.628906 -28 40.671875 -27.0625 C 40.671875 -26.644531 40.484375 -26.414062 40.109375 -26.375 C 39.367188 -26.28125 38.5 -26.242188 37.5 -26.265625 C 36.5 -26.285156 35.554688 -26.285156 34.671875 -26.265625 C 33.785156 -26.242188 33.203125 -26.140625 32.921875 -25.953125 C 32.785156 -25.859375 32.625 -25.707031 32.4375 -25.5 C 32.25 -25.289062 32.109375 -24.976562 32.015625 -24.5625 C 31.972656 -24.1875 31.925781 -23.367188 31.875 -22.109375 C 31.832031 -20.859375 31.8125 -19.359375 31.8125 -17.609375 C 31.8125 -15.867188 31.8125 -14.054688 31.8125 -12.171875 C 31.8125 -10.285156 31.8125 -8.503906 31.8125 -6.828125 C 31.8125 -5.160156 31.8125 -3.769531 31.8125 -2.65625 C 31.8125 -1.539062 31.835938 -0.910156 31.890625 -0.765625 C 31.890625 -0.253906 31.675781 0 31.25 0 L 11.796875 0 C 11.421875 0 11.207031 -0.234375 11.15625 -0.703125 C 11.15625 -1.304688 11.164062 -2.328125 11.1875 -3.765625 C 11.21875 -5.210938 11.253906 -6.84375 11.296875 -8.65625 C 11.347656 -10.46875 11.394531 -12.269531 11.4375 -14.0625 C 11.488281 -15.851562 11.523438 -17.398438 11.546875 -18.703125 C 11.566406 -20.003906 11.554688 -20.835938 11.515625 -21.203125 C 11.421875 -21.898438 11.382812 -22.597656 11.40625 -23.296875 C 11.425781 -23.992188 11.179688 -24.597656 10.671875 -25.109375 C 10.253906 -25.484375 9.800781 -25.75 9.3125 -25.90625 C 8.820312 -26.070312 8.320312 -26.179688 7.8125 -26.234375 C 7.394531 -26.273438 6.765625 -26.296875 5.921875 -26.296875 C 5.085938 -26.296875 4.332031 -26.296875 3.65625 -26.296875 C 2.988281 -26.296875 2.65625 -26.296875 2.65625 -26.296875 C 2.226562 -26.296875 2.015625 -26.53125 2.015625 -27 C 2.015625 -27 2.015625 -27.3125 2.015625 -27.9375 C 2.015625 -28.570312 2.003906 -29.269531 1.984375 -30.03125 C 1.960938 -30.800781 1.929688 -31.394531 1.890625 -31.8125 C 1.835938 -32.46875 1.785156 -33.410156 1.734375 -34.640625 C 1.691406 -35.867188 1.671875 -37.144531 1.671875 -38.46875 C 1.671875 -39.800781 1.671875 -40.941406 1.671875 -41.890625 C 1.671875 -42.847656 1.671875 -43.375 1.671875 -43.46875 C 1.671875 -43.738281 1.878906 -43.875 2.296875 -43.875 L 40.53125 -43.875 C 40.53125 -43.875 40.550781 -43.863281 40.59375 -43.84375 C 40.644531 -43.820312 40.671875 -43.789062 40.671875 -43.75 Z M 40.671875 -43.75 "/></g></g></g></g></g><g transform="matrix(1, 0, 0, 1, 208, 158)"><g clip-path="url(#61b9a04b4e)"><g clip-path="url(#15c4e0bdee)"><g fill="#000000" fill-opacity="1"><g transform="translate(1.729639, 56.484704)"><g><path d="M 42.3125 -45.730469 C 42.558594 -45.484375 42.769531 -45.1875 42.941406 -44.84375 L 43.15625 -44.410156 L 43.207031 -43.933594 C 43.3125 -42.882812 43.347656 -41.984375 43.320312 -41.238281 C 43.296875 -40.589844 43.261719 -39.871094 43.214844 -39.082031 C 43.171875 -38.367188 43.148438 -37.269531 43.148438 -35.789062 C 43.148438 -35.304688 43.191406 -34.566406 43.277344 -33.574219 L 43.496094 -31.015625 L 43.496094 -30.90625 C 43.496094 -29.972656 43.191406 -29.199219 42.574219 -28.585938 C 41.960938 -27.96875 41.183594 -27.660156 40.253906 -27.660156 L 40.214844 -27.660156 L 40.175781 -27.664062 C 38.570312 -27.710938 36.734375 -27.792969 34.664062 -27.910156 L 28.914062 -28.222656 C 27.171875 -28.3125 25.929688 -28.359375 25.183594 -28.359375 L 25.183594 -30.976562 L 25.253906 -28.359375 C 23.667969 -28.316406 22.300781 -28.191406 21.152344 -27.984375 C 21.007812 -27.957031 20.894531 -27.925781 20.816406 -27.894531 C 20.835938 -27.902344 20.871094 -27.929688 20.925781 -27.972656 C 21.230469 -28.230469 21.382812 -28.554688 21.382812 -28.953125 C 21.382812 -28.878906 21.386719 -28.828125 21.390625 -28.796875 C 21.382812 -28.84375 21.363281 -28.902344 21.328125 -28.972656 C 21.15625 -29.359375 20.855469 -29.628906 20.429688 -29.792969 C 20.722656 -29.679688 20.949219 -29.613281 21.113281 -29.59375 L 21.191406 -29.585938 L 21.265625 -29.570312 C 22.292969 -29.382812 23.105469 -29.3125 23.710938 -29.363281 C 24.675781 -29.441406 25.964844 -29.433594 27.582031 -29.332031 C 29.246094 -29.230469 30.890625 -29 32.511719 -28.648438 C 34.417969 -28.230469 36.121094 -27.394531 37.609375 -26.140625 C 38.363281 -25.496094 39.164062 -24.699219 40.007812 -23.75 C 41.019531 -22.621094 41.847656 -21.066406 42.496094 -19.09375 C 43.117188 -17.203125 43.429688 -14.628906 43.429688 -11.371094 C 43.429688 -10.511719 43.253906 -9.355469 42.902344 -7.898438 C 42.527344 -6.347656 41.816406 -4.773438 40.769531 -3.171875 L 40.75 -3.144531 L 40.730469 -3.113281 C 40.160156 -2.289062 39.300781 -1.433594 38.160156 -0.546875 C 36.984375 0.363281 35.671875 1.050781 34.214844 1.515625 C 32.433594 2.054688 30.65625 2.351562 28.890625 2.40625 C 27.332031 2.453125 26.1875 2.476562 25.464844 2.476562 C 25.292969 2.476562 24.625 2.488281 23.457031 2.511719 C 22.253906 2.535156 20.773438 2.546875 19.011719 2.546875 C 17.277344 2.546875 15.460938 2.558594 13.566406 2.582031 C 11.648438 2.605469 9.835938 2.617188 8.128906 2.617188 L 2.441406 2.617188 C 1.570312 2.617188 0.832031 2.347656 0.234375 1.816406 C -0.457031 1.203125 -0.800781 0.410156 -0.800781 -0.558594 C -0.800781 -1.152344 -0.789062 -1.746094 -0.765625 -2.339844 C -0.742188 -2.9375 -0.703125 -3.53125 -0.652344 -4.125 C -0.566406 -5.417969 -0.535156 -6.738281 -0.558594 -8.085938 C -0.582031 -9.515625 -0.59375 -10.9375 -0.59375 -12.347656 C -0.59375 -13.339844 -0.25 -14.144531 0.441406 -14.757812 C 1.125 -15.367188 1.960938 -15.617188 2.941406 -15.507812 C 3.339844 -15.472656 3.859375 -15.453125 4.5 -15.453125 C 5.253906 -15.453125 5.949219 -15.441406 6.589844 -15.414062 C 7.160156 -15.394531 7.523438 -15.382812 7.675781 -15.382812 L 7.761719 -15.382812 L 7.847656 -15.378906 C 8.503906 -15.332031 9.417969 -15.300781 10.585938 -15.277344 C 11.746094 -15.253906 12.980469 -15.265625 14.28125 -15.3125 C 15.589844 -15.355469 16.820312 -15.425781 17.96875 -15.515625 C 18.980469 -15.59375 19.726562 -15.703125 20.210938 -15.839844 L 20.265625 -15.855469 L 20.324219 -15.871094 C 20.335938 -15.875 20.34375 -15.875 20.347656 -15.875 C 20.332031 -15.871094 20.3125 -15.863281 20.292969 -15.847656 C 20.203125 -15.800781 20.121094 -15.730469 20.046875 -15.644531 C 19.921875 -15.492188 19.855469 -15.367188 19.851562 -15.261719 L 19.851562 -15.308594 L 19.855469 -15.355469 C 19.828125 -15.007812 19.925781 -14.671875 20.152344 -14.347656 C 20.335938 -14.085938 20.542969 -13.910156 20.777344 -13.828125 C 20.480469 -13.933594 20.066406 -13.988281 19.535156 -13.988281 C 18.769531 -13.988281 18.003906 -13.957031 17.238281 -13.890625 C 16.332031 -13.816406 15.605469 -13.777344 15.070312 -13.777344 L 15.070312 -16.394531 L 15.230469 -13.785156 C 13.5625 -13.679688 11.925781 -13.746094 10.328125 -13.980469 C 8.519531 -14.246094 6.828125 -14.90625 5.246094 -15.960938 C 4.078125 -16.722656 3.039062 -17.699219 2.132812 -18.898438 C 1.253906 -20.058594 0.585938 -21.277344 0.121094 -22.546875 C -0.800781 -24.996094 -1.140625 -27.558594 -0.894531 -30.238281 C -0.660156 -32.808594 -0.015625 -35.253906 1.035156 -37.570312 C 1.699219 -39.007812 2.53125 -40.308594 3.523438 -41.46875 C 4.601562 -42.722656 5.886719 -43.710938 7.378906 -44.425781 C 8.441406 -44.933594 9.539062 -45.386719 10.667969 -45.789062 C 12 -46.261719 13.347656 -46.496094 14.71875 -46.496094 L 41.546875 -46.496094 Z M 38.613281 -42.03125 L 40.464844 -43.882812 L 40.464844 -41.265625 L 14.71875 -41.265625 C 13.953125 -41.265625 13.183594 -41.128906 12.421875 -40.859375 C 11.460938 -40.515625 10.535156 -40.132812 9.644531 -39.707031 C 8.8125 -39.308594 8.097656 -38.761719 7.496094 -38.0625 C 6.820312 -37.269531 6.253906 -36.382812 5.800781 -35.402344 C 4.992188 -33.625 4.496094 -31.746094 4.316406 -29.757812 C 4.140625 -27.878906 4.382812 -26.070312 5.039062 -24.335938 C 5.324219 -23.558594 5.746094 -22.796875 6.308594 -22.054688 C 6.84375 -21.34375 7.457031 -20.765625 8.148438 -20.316406 C 9.078125 -19.695312 10.058594 -19.308594 11.089844 -19.15625 C 12.328125 -18.972656 13.601562 -18.925781 14.90625 -19.003906 L 14.988281 -19.011719 L 15.070312 -19.011719 C 15.460938 -19.011719 16.039062 -19.042969 16.804688 -19.105469 C 17.714844 -19.183594 18.625 -19.21875 19.535156 -19.21875 C 20.675781 -19.21875 21.679688 -19.0625 22.546875 -18.75 C 23.359375 -18.457031 23.992188 -17.988281 24.445312 -17.339844 C 24.9375 -16.632812 25.148438 -15.828125 25.070312 -14.921875 L 22.464844 -15.140625 L 25.078125 -15.015625 C 25.027344 -13.933594 24.679688 -13.015625 24.042969 -12.261719 C 23.417969 -11.523438 22.582031 -11.027344 21.535156 -10.78125 L 20.929688 -13.324219 L 21.648438 -10.808594 C 20.828125 -10.574219 19.738281 -10.40625 18.378906 -10.296875 C 17.152344 -10.203125 15.847656 -10.128906 14.460938 -10.082031 C 13.066406 -10.035156 11.738281 -10.023438 10.484375 -10.046875 C 9.234375 -10.070312 8.238281 -10.105469 7.5 -10.15625 L 7.675781 -12.765625 L 7.675781 -10.152344 C 7.453125 -10.152344 7.027344 -10.164062 6.386719 -10.1875 C 5.816406 -10.210938 5.1875 -10.21875 4.5 -10.21875 C 3.699219 -10.21875 2.988281 -10.25 2.363281 -10.304688 C 2.925781 -10.242188 3.441406 -10.421875 3.917969 -10.847656 C 4.398438 -11.273438 4.640625 -11.773438 4.640625 -12.347656 C 4.640625 -10.96875 4.652344 -9.574219 4.675781 -8.171875 C 4.699219 -6.679688 4.660156 -5.1875 4.5625 -3.691406 C 4.515625 -3.167969 4.484375 -2.644531 4.460938 -2.125 C 4.441406 -1.601562 4.429688 -1.078125 4.429688 -0.558594 C 4.429688 -1.15625 4.191406 -1.667969 3.710938 -2.09375 C 3.316406 -2.441406 2.894531 -2.617188 2.441406 -2.617188 L 8.128906 -2.617188 C 9.8125 -2.617188 11.605469 -2.628906 13.503906 -2.652344 C 15.417969 -2.675781 17.257812 -2.6875 19.011719 -2.6875 C 20.738281 -2.6875 22.1875 -2.699219 23.355469 -2.71875 C 24.558594 -2.742188 25.261719 -2.753906 25.464844 -2.753906 C 26.136719 -2.753906 27.226562 -2.777344 28.734375 -2.824219 C 30.035156 -2.863281 31.332031 -3.078125 32.621094 -3.46875 C 33.488281 -3.746094 34.265625 -4.152344 34.953125 -4.683594 C 35.671875 -5.242188 36.164062 -5.710938 36.429688 -6.09375 L 38.578125 -4.605469 L 36.390625 -6.039062 C 37.109375 -7.132812 37.582031 -8.164062 37.816406 -9.125 C 38.070312 -10.179688 38.195312 -10.925781 38.195312 -11.371094 C 38.195312 -14.070312 37.972656 -16.097656 37.523438 -17.460938 C 37.101562 -18.742188 36.628906 -19.679688 36.105469 -20.269531 C 35.414062 -21.042969 34.792969 -21.664062 34.246094 -22.136719 C 33.410156 -22.835938 32.460938 -23.300781 31.394531 -23.535156 C 30.035156 -23.832031 28.65625 -24.023438 27.253906 -24.109375 C 25.890625 -24.195312 24.855469 -24.207031 24.144531 -24.148438 C 23.078125 -24.058594 21.796875 -24.152344 20.3125 -24.425781 L 20.789062 -27 L 20.464844 -24.402344 C 19.882812 -24.476562 19.253906 -24.640625 18.566406 -24.902344 C 17.65625 -25.25 16.988281 -25.882812 16.570312 -26.800781 C 16.289062 -27.414062 16.148438 -28.128906 16.148438 -28.953125 C 16.148438 -30.1875 16.621094 -31.199219 17.566406 -31.988281 C 18.242188 -32.550781 19.125 -32.933594 20.21875 -33.128906 C 21.628906 -33.386719 23.257812 -33.539062 25.113281 -33.589844 L 25.183594 -33.589844 C 26.019531 -33.589844 27.359375 -33.542969 29.199219 -33.449219 L 34.960938 -33.132812 C 36.984375 -33.019531 38.773438 -32.9375 40.332031 -32.894531 L 40.253906 -30.277344 L 40.253906 -32.894531 C 39.742188 -32.894531 39.28125 -32.691406 38.875 -32.285156 C 38.46875 -31.878906 38.265625 -31.417969 38.265625 -30.90625 L 40.882812 -30.90625 L 38.273438 -30.683594 L 38.066406 -33.121094 C 37.964844 -34.265625 37.917969 -35.15625 37.917969 -35.789062 C 37.917969 -37.375 37.941406 -38.582031 37.992188 -39.398438 C 38.035156 -40.148438 38.070312 -40.824219 38.09375 -41.433594 C 38.113281 -41.941406 38.082031 -42.601562 38 -43.410156 L 40.601562 -43.671875 L 38.261719 -42.503906 C 38.34375 -42.34375 38.460938 -42.183594 38.613281 -42.03125 Z M 38.613281 -42.03125 "/></g></g></g></g><g fill="#ffffff" fill-opacity="1"><g transform="translate(1.729639, 56.484704)"><g><path d="M 40.46875 -43.875 C 40.507812 -43.832031 40.554688 -43.765625 40.609375 -43.671875 C 40.703125 -42.742188 40.734375 -41.960938 40.703125 -41.328125 C 40.679688 -40.703125 40.644531 -40.003906 40.59375 -39.234375 C 40.550781 -38.472656 40.53125 -37.328125 40.53125 -35.796875 C 40.53125 -35.234375 40.578125 -34.414062 40.671875 -33.34375 C 40.765625 -32.28125 40.832031 -31.46875 40.875 -30.90625 C 40.875 -30.488281 40.664062 -30.28125 40.25 -30.28125 C 38.664062 -30.320312 36.851562 -30.398438 34.8125 -30.515625 C 32.769531 -30.640625 30.851562 -30.742188 29.0625 -30.828125 C 27.269531 -30.921875 25.976562 -30.96875 25.1875 -30.96875 C 23.46875 -30.925781 21.96875 -30.785156 20.6875 -30.546875 C 19.40625 -30.316406 18.765625 -29.785156 18.765625 -28.953125 C 18.765625 -28.066406 19.007812 -27.53125 19.5 -27.34375 C 19.988281 -27.15625 20.421875 -27.039062 20.796875 -27 C 22.046875 -26.769531 23.085938 -26.6875 23.921875 -26.75 C 24.765625 -26.820312 25.929688 -26.8125 27.421875 -26.71875 C 28.953125 -26.625 30.460938 -26.414062 31.953125 -26.09375 C 33.441406 -25.769531 34.765625 -25.117188 35.921875 -24.140625 C 36.578125 -23.578125 37.285156 -22.863281 38.046875 -22 C 38.816406 -21.144531 39.46875 -19.90625 40 -18.28125 C 40.539062 -16.65625 40.8125 -14.351562 40.8125 -11.375 C 40.8125 -10.71875 40.660156 -9.757812 40.359375 -8.5 C 40.054688 -7.25 39.460938 -5.953125 38.578125 -4.609375 C 38.160156 -4.003906 37.484375 -3.335938 36.546875 -2.609375 C 35.617188 -1.890625 34.578125 -1.347656 33.421875 -0.984375 C 31.878906 -0.515625 30.34375 -0.253906 28.8125 -0.203125 C 27.28125 -0.160156 26.164062 -0.140625 25.46875 -0.140625 C 25.28125 -0.140625 24.59375 -0.125 23.40625 -0.09375 C 22.21875 -0.0703125 20.75 -0.0625 19 -0.0625 C 17.257812 -0.0625 15.4375 -0.0507812 13.53125 -0.03125 C 11.625 -0.0078125 9.820312 0 8.125 0 C 6.425781 0 5.050781 0 4 0 C 2.957031 0 2.4375 0 2.4375 0 C 2.019531 0 1.8125 -0.1875 1.8125 -0.5625 C 1.8125 -1.113281 1.820312 -1.664062 1.84375 -2.21875 C 1.875 -2.78125 1.910156 -3.34375 1.953125 -3.90625 C 2.046875 -5.300781 2.078125 -6.707031 2.046875 -8.125 C 2.023438 -9.539062 2.015625 -10.945312 2.015625 -12.34375 C 2.015625 -12.757812 2.226562 -12.945312 2.65625 -12.90625 C 3.164062 -12.863281 3.78125 -12.84375 4.5 -12.84375 C 5.21875 -12.84375 5.878906 -12.828125 6.484375 -12.796875 C 7.085938 -12.773438 7.484375 -12.765625 7.671875 -12.765625 C 8.367188 -12.722656 9.320312 -12.6875 10.53125 -12.65625 C 11.738281 -12.632812 13.015625 -12.644531 14.359375 -12.6875 C 15.710938 -12.738281 16.984375 -12.8125 18.171875 -12.90625 C 19.359375 -13 20.273438 -13.140625 20.921875 -13.328125 C 21.898438 -13.554688 22.414062 -14.160156 22.46875 -15.140625 C 22.507812 -15.691406 22.238281 -16.070312 21.65625 -16.28125 C 21.082031 -16.5 20.375 -16.609375 19.53125 -16.609375 C 18.695312 -16.609375 17.859375 -16.570312 17.015625 -16.5 C 16.179688 -16.425781 15.53125 -16.390625 15.0625 -16.390625 C 13.582031 -16.296875 12.128906 -16.351562 10.703125 -16.5625 C 9.285156 -16.78125 7.953125 -17.304688 6.703125 -18.140625 C 5.765625 -18.742188 4.9375 -19.519531 4.21875 -20.46875 C 3.5 -21.425781 2.953125 -22.414062 2.578125 -23.4375 C 1.785156 -25.53125 1.492188 -27.71875 1.703125 -30 C 1.910156 -32.28125 2.484375 -34.441406 3.421875 -36.484375 C 3.972656 -37.691406 4.664062 -38.785156 5.5 -39.765625 C 6.34375 -40.742188 7.347656 -41.507812 8.515625 -42.0625 C 9.484375 -42.53125 10.488281 -42.945312 11.53125 -43.3125 C 12.582031 -43.6875 13.644531 -43.875 14.71875 -43.875 Z M 40.46875 -43.875 "/></g></g></g></g></g><g transform="matrix(1, 0, 0, 1, 171, 158)"><g clip-path="url(#418ef3c975)"><g clip-path="url(#d9b7b6b5d7)"><g fill="#000000" fill-opacity="1"><g transform="translate(1.42117, 56.484704)"><g><path d="M 34.15625 1.417969 C 32.644531 1.957031 31.113281 2.296875 29.5625 2.433594 C 28.164062 2.554688 27.144531 2.617188 26.511719 2.617188 L 14.789062 2.617188 C 12.574219 2.617188 10.316406 2.128906 8.015625 1.152344 C 5.585938 0.125 3.695312 -1.332031 2.339844 -3.21875 C 1.410156 -4.554688 0.71875 -6.039062 0.269531 -7.675781 C -0.144531 -9.175781 -0.417969 -10.640625 -0.546875 -12.078125 C -0.671875 -13.433594 -0.734375 -14.570312 -0.734375 -15.488281 L -0.734375 -43.394531 C -0.734375 -44.113281 -0.542969 -44.742188 -0.15625 -45.28125 C 0.136719 -45.695312 0.515625 -46.007812 0.972656 -46.222656 C 1.367188 -46.40625 1.789062 -46.496094 2.234375 -46.496094 L 18.417969 -46.496094 C 18.863281 -46.496094 19.28125 -46.40625 19.675781 -46.222656 C 20.136719 -46.007812 20.511719 -45.695312 20.808594 -45.28125 C 21.191406 -44.742188 21.382812 -44.113281 21.382812 -43.394531 L 21.382812 -32.824219 C 21.382812 -31.53125 21.371094 -30.15625 21.347656 -28.699219 C 21.324219 -27.289062 21.324219 -26.007812 21.347656 -24.851562 C 21.371094 -23.734375 21.398438 -22.980469 21.441406 -22.585938 L 21.445312 -22.515625 L 21.449219 -22.449219 C 21.492188 -21.558594 21.578125 -20.675781 21.703125 -19.808594 C 21.742188 -19.550781 21.785156 -19.359375 21.839844 -19.230469 L 21.835938 -19.238281 C 21.796875 -19.289062 21.75 -19.34375 21.691406 -19.394531 C 21.640625 -19.441406 21.542969 -19.484375 21.402344 -19.527344 C 21.132812 -19.609375 20.863281 -19.609375 20.597656 -19.527344 C 20.683594 -19.554688 20.742188 -19.574219 20.769531 -19.589844 C 20.679688 -19.542969 20.582031 -19.46875 20.472656 -19.359375 L 22.324219 -17.511719 L 20.214844 -19.058594 C 20.386719 -19.296875 20.476562 -19.617188 20.476562 -20.023438 C 20.476562 -21.042969 20.5 -22.039062 20.546875 -23.011719 L 23.160156 -22.882812 L 20.546875 -22.882812 C 20.546875 -23.363281 20.558594 -24.25 20.582031 -25.546875 C 20.605469 -26.808594 20.613281 -28.210938 20.613281 -29.753906 L 20.613281 -34.183594 C 20.613281 -35.632812 20.640625 -36.757812 20.691406 -37.554688 L 23.300781 -37.394531 L 20.683594 -37.394531 L 20.683594 -40.429688 C 20.683594 -41.386719 20.664062 -42.332031 20.617188 -43.269531 L 20.613281 -43.332031 L 20.613281 -43.394531 C 20.613281 -44.113281 20.804688 -44.742188 21.191406 -45.28125 C 21.484375 -45.695312 21.863281 -46.007812 22.320312 -46.222656 C 22.714844 -46.40625 23.136719 -46.496094 23.582031 -46.496094 L 40.671875 -46.496094 C 41.117188 -46.496094 41.535156 -46.40625 41.929688 -46.222656 C 42.390625 -46.007812 42.765625 -45.695312 43.0625 -45.28125 C 43.445312 -44.742188 43.636719 -44.113281 43.636719 -43.394531 L 43.636719 -16.882812 C 43.636719 -14.890625 43.527344 -12.792969 43.3125 -10.589844 C 43.050781 -7.972656 42.183594 -5.71875 40.710938 -3.832031 C 39.804688 -2.710938 38.851562 -1.71875 37.851562 -0.851562 C 36.753906 0.105469 35.558594 0.847656 34.269531 1.375 L 34.214844 1.398438 Z M 32.398438 -3.511719 L 33.277344 -1.046875 L 32.285156 -3.46875 C 33.042969 -3.777344 33.753906 -4.222656 34.421875 -4.800781 C 35.191406 -5.46875 35.910156 -6.21875 36.585938 -7.050781 C 37.4375 -8.140625 37.945312 -9.492188 38.105469 -11.105469 C 38.304688 -13.136719 38.40625 -15.0625 38.40625 -16.882812 L 38.40625 -43.394531 C 38.40625 -42.996094 38.539062 -42.613281 38.804688 -42.238281 C 39.042969 -41.90625 39.347656 -41.652344 39.71875 -41.480469 C 40.027344 -41.335938 40.34375 -41.265625 40.671875 -41.265625 L 23.582031 -41.265625 C 23.910156 -41.265625 24.226562 -41.335938 24.535156 -41.480469 C 24.90625 -41.652344 25.210938 -41.90625 25.449219 -42.238281 C 25.714844 -42.613281 25.847656 -42.996094 25.847656 -43.394531 L 23.230469 -43.394531 L 25.84375 -43.515625 C 25.894531 -42.5 25.917969 -41.46875 25.917969 -40.429688 L 25.917969 -37.3125 L 25.914062 -37.230469 C 25.871094 -36.539062 25.847656 -35.523438 25.847656 -34.183594 L 25.847656 -29.753906 C 25.847656 -28.179688 25.835938 -26.746094 25.8125 -25.449219 C 25.789062 -24.1875 25.777344 -23.332031 25.777344 -22.882812 L 25.777344 -22.816406 L 25.773438 -22.75 C 25.730469 -21.863281 25.707031 -20.957031 25.707031 -20.023438 C 25.707031 -18.472656 25.285156 -17.121094 24.433594 -15.964844 L 24.316406 -15.800781 L 24.175781 -15.660156 C 23.675781 -15.164062 22.984375 -14.78125 22.097656 -14.515625 C 21.367188 -14.296875 20.632812 -14.296875 19.898438 -14.515625 C 19.289062 -14.699219 18.730469 -15.023438 18.214844 -15.484375 C 17.320312 -16.28125 16.757812 -17.46875 16.527344 -19.050781 C 16.375 -20.089844 16.273438 -21.136719 16.222656 -22.199219 L 18.835938 -22.324219 L 16.234375 -22.0625 C 16.179688 -22.597656 16.140625 -23.492188 16.117188 -24.75 C 16.09375 -25.96875 16.09375 -27.3125 16.117188 -28.785156 C 16.136719 -30.210938 16.148438 -31.558594 16.148438 -32.824219 L 16.148438 -43.394531 C 16.148438 -42.996094 16.285156 -42.613281 16.550781 -42.238281 C 16.789062 -41.90625 17.09375 -41.652344 17.464844 -41.480469 C 17.769531 -41.335938 18.089844 -41.265625 18.417969 -41.265625 L 2.234375 -41.265625 C 2.5625 -41.265625 2.878906 -41.335938 3.1875 -41.480469 C 3.558594 -41.652344 3.863281 -41.90625 4.101562 -42.238281 C 4.367188 -42.613281 4.5 -42.996094 4.5 -43.394531 L 4.5 -15.488281 C 4.5 -14.730469 4.554688 -13.75 4.664062 -12.550781 C 4.765625 -11.425781 4.980469 -10.265625 5.3125 -9.066406 C 5.605469 -8.007812 6.03125 -7.074219 6.589844 -6.269531 C 7.375 -5.179688 8.527344 -4.3125 10.054688 -3.664062 C 11.707031 -2.964844 13.285156 -2.617188 14.789062 -2.617188 L 26.511719 -2.617188 C 26.992188 -2.617188 27.859375 -2.671875 29.105469 -2.78125 C 30.210938 -2.878906 31.304688 -3.121094 32.398438 -3.511719 Z M 32.398438 -3.511719 "/></g></g></g></g><g fill="#ffffff" fill-opacity="1"><g transform="translate(1.42117, 56.484704)"><g><path d="M 33.28125 -1.046875 C 31.976562 -0.578125 30.660156 -0.285156 29.328125 -0.171875 C 28.003906 -0.0546875 27.066406 0 26.515625 0 L 14.796875 0 C 12.929688 0 11.007812 -0.414062 9.03125 -1.25 C 7.050781 -2.09375 5.53125 -3.257812 4.46875 -4.75 C 3.71875 -5.8125 3.15625 -7.015625 2.78125 -8.359375 C 2.414062 -9.710938 2.175781 -11.03125 2.0625 -12.3125 C 1.945312 -13.59375 1.890625 -14.648438 1.890625 -15.484375 L 1.890625 -43.390625 C 1.890625 -43.710938 2.003906 -43.875 2.234375 -43.875 L 18.421875 -43.875 C 18.648438 -43.875 18.765625 -43.710938 18.765625 -43.390625 C 18.765625 -40.835938 18.765625 -38.28125 18.765625 -35.71875 C 18.765625 -35.070312 18.765625 -34.109375 18.765625 -32.828125 C 18.765625 -31.546875 18.753906 -30.179688 18.734375 -28.734375 C 18.710938 -27.296875 18.710938 -25.984375 18.734375 -24.796875 C 18.753906 -23.609375 18.789062 -22.785156 18.84375 -22.328125 C 18.882812 -21.347656 18.972656 -20.378906 19.109375 -19.421875 C 19.253906 -18.472656 19.535156 -17.8125 19.953125 -17.4375 C 20.421875 -17.019531 20.882812 -16.878906 21.34375 -17.015625 C 21.8125 -17.160156 22.140625 -17.328125 22.328125 -17.515625 C 22.835938 -18.210938 23.09375 -19.046875 23.09375 -20.015625 C 23.09375 -20.992188 23.113281 -21.953125 23.15625 -22.890625 C 23.15625 -23.347656 23.164062 -24.21875 23.1875 -25.5 C 23.21875 -26.78125 23.234375 -28.195312 23.234375 -29.75 C 23.234375 -31.3125 23.234375 -32.789062 23.234375 -34.1875 C 23.234375 -35.582031 23.253906 -36.648438 23.296875 -37.390625 C 23.296875 -38.410156 23.296875 -39.421875 23.296875 -40.421875 C 23.296875 -41.421875 23.273438 -42.410156 23.234375 -43.390625 C 23.234375 -43.710938 23.347656 -43.875 23.578125 -43.875 L 40.671875 -43.875 C 40.898438 -43.875 41.015625 -43.710938 41.015625 -43.390625 L 41.015625 -16.890625 C 41.015625 -14.972656 40.910156 -12.957031 40.703125 -10.84375 C 40.492188 -8.726562 39.8125 -6.925781 38.65625 -5.4375 C 37.863281 -4.46875 37.023438 -3.597656 36.140625 -2.828125 C 35.253906 -2.054688 34.300781 -1.460938 33.28125 -1.046875 Z M 33.28125 -1.046875 "/></g></g></g></g></g><g clip-path="url(#50baa18105)"><g clip-path="url(#280a9e3e67)"><g clip-path="url(#cd78b66584)"><path fill="#000000" d="M 191.710938 164.289062 L 185.382812 187.785156 L 192.824219 187.535156 L 189.71875 209.835938 L 205.148438 180.433594 L 198.121094 180.601562 L 207.320312 164.089844 Z M 191.710938 164.289062 " fill-opacity="1" fill-rule="nonzero"/></g></g></g><g transform="matrix(1, 0, 0, 1, 135, 158)"><g clip-path="url(#615c504196)"><g clip-path="url(#e8164c7d00)"><g fill="#000000" fill-opacity="1"><g transform="translate(1.389268, 56.484704)"><g><path d="M 39.523438 -14.496094 C 40 -13.542969 40.46875 -12.367188 40.925781 -10.964844 C 41.355469 -9.648438 41.761719 -8.3125 42.144531 -6.949219 C 42.523438 -5.605469 42.839844 -4.421875 43.101562 -3.402344 C 43.382812 -2.3125 43.550781 -1.558594 43.609375 -1.136719 L 41.019531 -0.765625 L 43.59375 -1.234375 C 43.75 -0.375 43.648438 0.390625 43.28125 1.0625 C 42.984375 1.605469 42.5625 2.015625 42.007812 2.292969 C 41.574219 2.507812 41.105469 2.617188 40.601562 2.617188 L 25.046875 2.617188 C 24.136719 2.617188 23.390625 2.269531 22.808594 1.570312 C 22.449219 1.136719 22.214844 0.617188 22.117188 0.0117188 L 24.695312 -0.417969 L 22.179688 0.300781 C 22.101562 0.015625 21.902344 -0.582031 21.59375 -1.492188 C 21.277344 -2.410156 20.90625 -3.425781 20.476562 -4.53125 C 20.050781 -5.636719 19.644531 -6.625 19.261719 -7.5 C 18.96875 -8.179688 18.78125 -8.5625 18.710938 -8.648438 L 20.71875 -10.324219 L 18.871094 -8.476562 C 19.128906 -8.21875 19.441406 -8.050781 19.8125 -7.976562 C 20.125 -7.914062 20.410156 -7.929688 20.675781 -8.015625 C 20.984375 -8.121094 21.25 -8.308594 21.472656 -8.582031 C 21.6875 -8.847656 21.8125 -9.132812 21.851562 -9.441406 L 19.253906 -9.765625 L 21.867188 -9.597656 C 21.777344 -8.199219 21.71875 -6.742188 21.695312 -5.226562 C 21.671875 -3.710938 21.683594 -2.226562 21.730469 -0.78125 L 19.117188 -0.699219 L 21.71875 -0.957031 C 21.800781 -0.148438 21.65625 0.558594 21.289062 1.171875 C 20.992188 1.664062 20.589844 2.039062 20.074219 2.296875 C 19.648438 2.507812 19.191406 2.617188 18.695312 2.617188 L 2.371094 2.617188 C 1.890625 2.617188 1.4375 2.511719 1.019531 2.300781 C 0.550781 2.066406 0.171875 1.730469 -0.117188 1.292969 C -0.480469 0.75 -0.664062 0.109375 -0.664062 -0.628906 L -0.664062 -6.558594 C -0.664062 -6.8125 -0.652344 -7.4375 -0.628906 -8.433594 C -0.605469 -9.390625 -0.59375 -10.53125 -0.59375 -11.859375 L -0.59375 -15.90625 C -0.59375 -17.234375 -0.605469 -18.375 -0.628906 -19.332031 C -0.652344 -20.328125 -0.664062 -20.953125 -0.664062 -21.207031 L -0.664062 -29.859375 L -0.523438 -36.714844 C -0.476562 -38.980469 -0.476562 -41.234375 -0.523438 -43.480469 C -0.523438 -44.113281 -0.382812 -44.667969 -0.0976562 -45.140625 C 0.160156 -45.570312 0.503906 -45.90625 0.941406 -46.148438 C 1.359375 -46.378906 1.816406 -46.496094 2.300781 -46.496094 L 31.882812 -46.496094 C 33.074219 -46.496094 34.257812 -46.210938 35.433594 -45.640625 C 36.425781 -45.160156 37.375 -44.550781 38.277344 -43.820312 L 38.355469 -43.75 C 39.347656 -42.875 40.179688 -41.882812 40.851562 -40.769531 C 41.421875 -39.828125 41.839844 -39.089844 42.105469 -38.5625 L 42.136719 -38.5 L 42.164062 -38.433594 C 42.878906 -36.785156 43.320312 -35.105469 43.484375 -33.390625 C 43.632812 -31.863281 43.707031 -30.128906 43.707031 -28.183594 C 43.707031 -26.804688 43.582031 -25.246094 43.332031 -23.519531 C 43.0625 -21.675781 42.695312 -20.226562 42.226562 -19.167969 L 39.835938 -20.230469 L 42.25 -19.226562 C 41.96875 -18.550781 41.585938 -17.808594 41.101562 -17 C 40.671875 -16.285156 40.289062 -15.660156 39.949219 -15.128906 C 39.519531 -14.457031 39.214844 -14.027344 39.035156 -13.847656 L 38.269531 -13.082031 L 37.113281 -13.082031 L 37.113281 -15.695312 L 38.964844 -13.847656 C 39.082031 -13.960938 39.171875 -14.117188 39.238281 -14.308594 C 39.328125 -14.5625 39.351562 -14.816406 39.308594 -15.070312 C 39.332031 -14.925781 39.40625 -14.734375 39.523438 -14.496094 Z M 34.84375 -12.15625 C 34.496094 -12.847656 34.269531 -13.515625 34.152344 -14.160156 C 34.039062 -14.8125 34.089844 -15.445312 34.308594 -16.058594 C 34.503906 -16.609375 34.824219 -17.105469 35.265625 -17.546875 L 36.03125 -18.3125 L 37.183594 -18.3125 L 37.183594 -15.695312 L 35.335938 -17.546875 C 35.242188 -17.457031 35.171875 -17.371094 35.117188 -17.296875 C 35.128906 -17.3125 35.152344 -17.347656 35.179688 -17.390625 C 35.265625 -17.515625 35.382812 -17.699219 35.535156 -17.9375 C 35.847656 -18.429688 36.207031 -19.015625 36.613281 -19.695312 C 36.96875 -20.28125 37.238281 -20.796875 37.421875 -21.238281 L 37.445312 -21.292969 C 37.71875 -21.910156 37.953125 -22.902344 38.152344 -24.269531 C 38.367188 -25.75 38.472656 -27.054688 38.472656 -28.183594 C 38.472656 -29.960938 38.410156 -31.527344 38.277344 -32.886719 C 38.164062 -34.054688 37.859375 -35.210938 37.363281 -36.351562 L 39.765625 -37.394531 L 37.425781 -36.222656 C 37.222656 -36.625 36.875 -37.238281 36.375 -38.0625 C 35.980469 -38.71875 35.484375 -39.304688 34.894531 -39.828125 L 36.625 -41.789062 L 34.976562 -39.757812 C 34.386719 -40.234375 33.777344 -40.628906 33.144531 -40.933594 C 32.691406 -41.15625 32.273438 -41.265625 31.882812 -41.265625 L 2.300781 -41.265625 C 2.71875 -41.265625 3.113281 -41.367188 3.480469 -41.574219 C 3.863281 -41.785156 4.164062 -42.078125 4.390625 -42.449219 C 4.601562 -42.804688 4.710938 -43.183594 4.707031 -43.585938 C 4.757812 -41.273438 4.757812 -38.945312 4.707031 -36.605469 L 4.570312 -29.859375 L 4.570312 -21.207031 C 4.570312 -20.996094 4.582031 -20.414062 4.605469 -19.457031 C 4.628906 -18.460938 4.640625 -17.277344 4.640625 -15.90625 L 4.640625 -11.859375 C 4.640625 -10.492188 4.628906 -9.308594 4.605469 -8.308594 C 4.582031 -7.351562 4.570312 -6.769531 4.570312 -6.558594 L 4.570312 -0.628906 C 4.570312 -0.945312 4.457031 -1.273438 4.234375 -1.609375 C 4.011719 -1.941406 3.722656 -2.199219 3.359375 -2.378906 C 3.042969 -2.539062 2.714844 -2.617188 2.371094 -2.617188 L 18.695312 -2.617188 C 18.367188 -2.617188 18.046875 -2.539062 17.734375 -2.382812 C 17.339844 -2.1875 17.027344 -1.898438 16.800781 -1.519531 C 16.574219 -1.140625 16.476562 -0.78125 16.511719 -0.4375 L 16.503906 -0.527344 L 16.5 -0.617188 C 16.453125 -2.144531 16.441406 -3.707031 16.464844 -5.304688 C 16.488281 -6.90625 16.546875 -8.449219 16.644531 -9.933594 L 16.648438 -10.011719 L 16.660156 -10.089844 C 16.742188 -10.773438 16.992188 -11.367188 17.40625 -11.875 C 17.824219 -12.394531 18.363281 -12.761719 19.019531 -12.980469 C 19.632812 -13.1875 20.242188 -13.226562 20.839844 -13.109375 C 21.503906 -12.976562 22.082031 -12.664062 22.570312 -12.175781 L 22.652344 -12.089844 L 22.730469 -12 C 23.121094 -11.53125 23.566406 -10.726562 24.058594 -9.589844 C 24.46875 -8.652344 24.902344 -7.59375 25.355469 -6.421875 C 25.8125 -5.25 26.207031 -4.167969 26.542969 -3.183594 C 26.882812 -2.1875 27.105469 -1.503906 27.210938 -1.136719 L 27.253906 -0.996094 L 27.277344 -0.847656 C 27.222656 -1.175781 27.074219 -1.484375 26.828125 -1.78125 C 26.363281 -2.335938 25.769531 -2.617188 25.046875 -2.617188 L 40.601562 -2.617188 C 40.285156 -2.617188 39.972656 -2.539062 39.667969 -2.386719 C 39.242188 -2.175781 38.917969 -1.859375 38.6875 -1.445312 C 38.464844 -1.03125 38.382812 -0.648438 38.445312 -0.300781 L 38.4375 -0.347656 L 38.429688 -0.398438 C 38.398438 -0.628906 38.265625 -1.199219 38.03125 -2.105469 C 37.78125 -3.085938 37.472656 -4.230469 37.105469 -5.535156 C 36.746094 -6.828125 36.359375 -8.09375 35.953125 -9.335938 C 35.574219 -10.492188 35.203125 -11.433594 34.84375 -12.15625 Z M 19.640625 -25.449219 C 19.683594 -26.359375 19.695312 -27.1875 19.675781 -27.933594 C 19.652344 -28.664062 19.601562 -29.363281 19.519531 -30.023438 C 19.46875 -30.492188 19.402344 -30.835938 19.328125 -31.0625 C 19.320312 -31.089844 19.3125 -31.113281 19.304688 -31.128906 C 19.304688 -31.125 19.308594 -31.113281 19.316406 -31.101562 C 19.378906 -30.996094 19.464844 -30.894531 19.582031 -30.792969 C 19.59375 -30.78125 19.625 -30.765625 19.679688 -30.742188 C 19.804688 -30.6875 19.941406 -30.660156 20.09375 -30.660156 C 20.363281 -30.660156 20.605469 -30.738281 20.824219 -30.890625 C 20.976562 -30.996094 21.117188 -31.144531 21.238281 -31.328125 C 21.476562 -31.679688 21.59375 -32.074219 21.59375 -32.511719 L 21.59375 -30.207031 C 21.59375 -29.445312 21.582031 -28.441406 21.558594 -27.195312 C 21.535156 -26.027344 21.546875 -25.085938 21.585938 -24.363281 L 21.59375 -24.285156 L 21.59375 -24.207031 C 21.59375 -24.074219 21.617188 -23.890625 21.667969 -23.660156 C 21.570312 -24.101562 21.332031 -24.460938 20.949219 -24.730469 C 20.722656 -24.894531 20.507812 -24.984375 20.308594 -25 L 20.09375 -22.394531 L 20.09375 -25.011719 C 19.921875 -25.011719 19.769531 -24.976562 19.636719 -24.910156 C 19.605469 -24.898438 19.578125 -24.882812 19.5625 -24.871094 C 19.570312 -24.875 19.582031 -24.886719 19.601562 -24.90625 C 19.558594 -24.863281 19.523438 -24.820312 19.5 -24.78125 L 19.5 -24.777344 C 19.503906 -24.792969 19.511719 -24.808594 19.519531 -24.828125 C 19.578125 -24.996094 19.621094 -25.238281 19.648438 -25.550781 L 22.253906 -25.324219 Z M 24.867188 -25.199219 L 24.867188 -25.148438 L 24.859375 -25.097656 C 24.714844 -23.394531 24.195312 -22.097656 23.300781 -21.207031 C 22.351562 -20.253906 21.28125 -19.777344 20.09375 -19.777344 L 19.984375 -19.777344 L 19.875 -19.785156 C 19.117188 -19.851562 18.460938 -20.078125 17.910156 -20.472656 C 17.203125 -20.980469 16.753906 -21.664062 16.5625 -22.523438 C 16.425781 -23.128906 16.359375 -23.691406 16.359375 -24.207031 L 18.976562 -24.207031 L 16.363281 -24.054688 C 16.3125 -24.914062 16.300781 -25.992188 16.324219 -27.292969 C 16.347656 -28.507812 16.359375 -29.480469 16.359375 -30.207031 L 16.359375 -32.511719 C 16.359375 -33.132812 16.535156 -33.703125 16.886719 -34.230469 C 17.125 -34.59375 17.4375 -34.90625 17.824219 -35.175781 C 18.507812 -35.65625 19.261719 -35.894531 20.09375 -35.894531 C 21.171875 -35.894531 22.152344 -35.5 23.042969 -34.714844 C 23.945312 -33.921875 24.5 -32.574219 24.710938 -30.671875 C 24.816406 -29.84375 24.878906 -28.980469 24.90625 -28.085938 C 24.929688 -27.203125 24.917969 -26.242188 24.867188 -25.199219 Z M 24.867188 -25.199219 "/></g></g></g></g><g fill="#ffffff" fill-opacity="1"><g transform="translate(1.389268, 56.484704)"><g><path d="M 37.1875 -13.328125 C 37.601562 -12.484375 38.019531 -11.421875 38.4375 -10.140625 C 38.851562 -8.867188 39.25 -7.566406 39.625 -6.234375 C 40 -4.910156 40.3125 -3.75 40.5625 -2.75 C 40.820312 -1.75 40.972656 -1.085938 41.015625 -0.765625 C 41.109375 -0.253906 40.972656 0 40.609375 0 L 25.046875 0 C 24.859375 0 24.742188 -0.140625 24.703125 -0.421875 C 24.609375 -0.742188 24.394531 -1.378906 24.0625 -2.328125 C 23.738281 -3.285156 23.351562 -4.332031 22.90625 -5.46875 C 22.46875 -6.613281 22.050781 -7.640625 21.65625 -8.546875 C 21.257812 -9.453125 20.945312 -10.046875 20.71875 -10.328125 C 20.488281 -10.554688 20.195312 -10.613281 19.84375 -10.5 C 19.5 -10.382812 19.300781 -10.140625 19.25 -9.765625 C 19.15625 -8.328125 19.097656 -6.828125 19.078125 -5.265625 C 19.054688 -3.710938 19.066406 -2.191406 19.109375 -0.703125 C 19.160156 -0.234375 19.023438 0 18.703125 0 L 2.375 0 C 2.09375 0 1.953125 -0.207031 1.953125 -0.625 L 1.953125 -6.5625 C 1.953125 -6.789062 1.960938 -7.394531 1.984375 -8.375 C 2.003906 -9.351562 2.015625 -10.515625 2.015625 -11.859375 C 2.015625 -13.210938 2.015625 -14.5625 2.015625 -15.90625 C 2.015625 -17.257812 2.003906 -18.421875 1.984375 -19.390625 C 1.960938 -20.367188 1.953125 -20.972656 1.953125 -21.203125 L 1.953125 -29.859375 C 1.992188 -32.085938 2.035156 -34.351562 2.078125 -36.65625 C 2.128906 -38.957031 2.132812 -41.25 2.09375 -43.53125 C 2.09375 -43.757812 2.160156 -43.875 2.296875 -43.875 L 31.890625 -43.875 C 32.671875 -43.875 33.46875 -43.675781 34.28125 -43.28125 C 35.101562 -42.894531 35.882812 -42.398438 36.625 -41.796875 C 37.414062 -41.097656 38.078125 -40.304688 38.609375 -39.421875 C 39.148438 -38.535156 39.535156 -37.859375 39.765625 -37.390625 C 40.367188 -35.992188 40.738281 -34.570312 40.875 -33.125 C 41.019531 -31.6875 41.09375 -30.039062 41.09375 -28.1875 C 41.09375 -26.925781 40.972656 -25.492188 40.734375 -23.890625 C 40.503906 -22.285156 40.207031 -21.066406 39.84375 -20.234375 C 39.601562 -19.671875 39.273438 -19.039062 38.859375 -18.34375 C 38.441406 -17.644531 38.066406 -17.039062 37.734375 -16.53125 C 37.410156 -16.019531 37.226562 -15.742188 37.1875 -15.703125 C 37.1875 -15.703125 37.160156 -15.703125 37.109375 -15.703125 C 36.785156 -15.367188 36.660156 -15.003906 36.734375 -14.609375 C 36.804688 -14.210938 36.957031 -13.785156 37.1875 -13.328125 Z M 22.25 -25.328125 C 22.300781 -26.304688 22.3125 -27.203125 22.28125 -28.015625 C 22.257812 -28.828125 22.203125 -29.601562 22.109375 -30.34375 C 21.972656 -31.601562 21.707031 -32.40625 21.3125 -32.75 C 20.914062 -33.101562 20.507812 -33.28125 20.09375 -33.28125 C 19.8125 -33.28125 19.550781 -33.195312 19.3125 -33.03125 C 19.082031 -32.875 18.96875 -32.703125 18.96875 -32.515625 C 18.96875 -32.234375 18.96875 -31.882812 18.96875 -31.46875 C 18.96875 -31.050781 18.96875 -30.628906 18.96875 -30.203125 C 18.96875 -29.460938 18.957031 -28.472656 18.9375 -27.234375 C 18.914062 -26.003906 18.925781 -24.992188 18.96875 -24.203125 C 18.96875 -23.878906 19.015625 -23.507812 19.109375 -23.09375 C 19.203125 -22.675781 19.53125 -22.441406 20.09375 -22.390625 C 20.5625 -22.390625 21.015625 -22.609375 21.453125 -23.046875 C 21.890625 -23.492188 22.15625 -24.253906 22.25 -25.328125 Z M 22.25 -25.328125 "/></g></g></g></g></g><g transform="matrix(1, 0, 0, 1, 99, 158)"><g clip-path="url(#4956b07ee9)"><g clip-path="url(#e56b997237)"><g fill="#000000" fill-opacity="1"><g transform="translate(1.357359, 56.484704)"><g><path d="M 43.289062 -43.742188 C 43.289062 -41.925781 43.332031 -40.09375 43.425781 -38.253906 C 43.523438 -36.285156 43.523438 -34.328125 43.425781 -32.378906 L 43.285156 -29.6875 C 43.242188 -28.871094 43.242188 -28.039062 43.285156 -27.199219 L 43.289062 -27.132812 L 43.289062 -27.066406 C 43.289062 -26.246094 43.050781 -25.539062 42.574219 -24.945312 C 42.039062 -24.277344 41.328125 -23.886719 40.4375 -23.773438 C 39.566406 -23.664062 38.566406 -23.625 37.4375 -23.652344 C 36.480469 -23.671875 35.582031 -23.671875 34.742188 -23.652344 C 34.433594 -23.640625 34.199219 -23.625 34.039062 -23.59375 L 34.03125 -23.597656 C 34.140625 -23.636719 34.257812 -23.695312 34.378906 -23.773438 C 34.425781 -23.804688 34.460938 -23.832031 34.480469 -23.851562 C 34.460938 -23.832031 34.433594 -23.800781 34.394531 -23.761719 C 34.484375 -23.859375 34.546875 -23.953125 34.585938 -24.042969 C 34.589844 -24.054688 34.59375 -24.058594 34.59375 -24.058594 C 34.589844 -24.042969 34.582031 -24.019531 34.574219 -23.988281 L 32.023438 -24.558594 L 34.617188 -24.230469 C 34.582031 -23.9375 34.539062 -23.199219 34.496094 -22.019531 C 34.453125 -20.792969 34.429688 -19.328125 34.429688 -17.617188 L 34.429688 -2.652344 C 34.429688 -2.125 34.433594 -1.722656 34.445312 -1.441406 C 34.449219 -1.328125 34.453125 -1.25 34.457031 -1.199219 C 34.449219 -1.304688 34.417969 -1.4375 34.363281 -1.59375 L 34.5 -1.191406 L 34.5 -0.765625 C 34.5 0.109375 34.25 0.855469 33.75 1.464844 C 33.121094 2.234375 32.289062 2.617188 31.253906 2.617188 L 11.789062 2.617188 C 10.828125 2.617188 10.035156 2.269531 9.410156 1.574219 C 8.921875 1.035156 8.640625 0.363281 8.558594 -0.4375 L 8.546875 -0.566406 L 8.546875 -0.699219 C 8.546875 -1.316406 8.558594 -2.355469 8.582031 -3.808594 C 8.605469 -5.257812 8.640625 -6.894531 8.6875 -8.71875 L 8.824219 -14.125 L 8.929688 -18.753906 C 8.949219 -19.925781 8.945312 -20.636719 8.914062 -20.882812 C 8.804688 -21.710938 8.761719 -22.546875 8.792969 -23.386719 C 8.789062 -23.328125 8.800781 -23.289062 8.824219 -23.265625 L 10.675781 -25.113281 L 8.9375 -23.160156 C 8.785156 -23.292969 8.636719 -23.386719 8.484375 -23.433594 C 8.191406 -23.535156 7.886719 -23.597656 7.578125 -23.625 C 7.21875 -23.664062 6.671875 -23.683594 5.929688 -23.683594 L 2.652344 -23.683594 C 1.664062 -23.683594 0.859375 -24.03125 0.234375 -24.726562 C -0.316406 -25.339844 -0.59375 -26.097656 -0.59375 -27 L -0.59375 -27.941406 C -0.59375 -28.542969 -0.605469 -29.214844 -0.625 -29.953125 C -0.648438 -30.652344 -0.679688 -31.175781 -0.714844 -31.523438 L -0.722656 -31.574219 L -0.726562 -31.625 C -0.773438 -32.304688 -0.824219 -33.277344 -0.871094 -34.539062 C -0.917969 -35.804688 -0.941406 -37.117188 -0.941406 -38.476562 L -0.941406 -43.460938 C -0.941406 -43.945312 -0.835938 -44.394531 -0.625 -44.816406 C -0.394531 -45.28125 -0.0585938 -45.660156 0.378906 -45.953125 C 0.925781 -46.316406 1.566406 -46.496094 2.300781 -46.496094 L 41.148438 -46.496094 L 41.773438 -46.1875 C 42.210938 -45.96875 42.5625 -45.65625 42.832031 -45.253906 C 43.136719 -44.796875 43.289062 -44.292969 43.289062 -43.742188 Z M 38.054688 -43.742188 C 38.054688 -43.238281 38.195312 -42.773438 38.476562 -42.351562 C 38.722656 -41.984375 39.042969 -41.703125 39.433594 -41.507812 L 39.363281 -41.542969 L 40.53125 -43.882812 L 40.53125 -41.265625 L 2.300781 -41.265625 C 2.621094 -41.265625 2.949219 -41.375 3.28125 -41.601562 C 3.617188 -41.820312 3.871094 -42.113281 4.054688 -42.476562 C 4.210938 -42.792969 4.289062 -43.121094 4.289062 -43.460938 L 4.289062 -38.476562 C 4.289062 -37.183594 4.3125 -35.9375 4.359375 -34.738281 C 4.402344 -33.53125 4.449219 -32.621094 4.492188 -32 L 1.882812 -31.8125 L 4.484375 -32.101562 C 4.539062 -31.613281 4.578125 -30.949219 4.601562 -30.113281 C 4.628906 -29.320312 4.640625 -28.59375 4.640625 -27.941406 L 4.640625 -27 C 4.640625 -27.433594 4.46875 -27.84375 4.125 -28.226562 C 3.710938 -28.6875 3.21875 -28.917969 2.652344 -28.917969 L 5.929688 -28.917969 C 6.863281 -28.917969 7.570312 -28.890625 8.050781 -28.835938 C 8.761719 -28.773438 9.460938 -28.625 10.140625 -28.398438 C 10.96875 -28.125 11.726562 -27.679688 12.410156 -27.070312 L 12.46875 -27.019531 L 12.523438 -26.964844 C 13.570312 -25.917969 14.070312 -24.667969 14.019531 -23.214844 C 14.003906 -22.660156 14.03125 -22.101562 14.105469 -21.53125 C 14.167969 -21.039062 14.1875 -20.074219 14.160156 -18.636719 L 14.058594 -13.988281 L 13.917969 -8.582031 C 13.871094 -6.777344 13.835938 -5.160156 13.8125 -3.726562 C 13.789062 -2.296875 13.777344 -1.289062 13.777344 -0.699219 L 11.164062 -0.699219 L 13.765625 -0.957031 C 13.730469 -1.292969 13.578125 -1.617188 13.296875 -1.925781 C 12.882812 -2.386719 12.378906 -2.617188 11.789062 -2.617188 L 31.253906 -2.617188 C 30.636719 -2.617188 30.117188 -2.359375 29.699219 -1.847656 C 29.410156 -1.496094 29.265625 -1.132812 29.265625 -0.765625 L 31.882812 -0.765625 L 29.398438 0.0585938 C 29.265625 -0.347656 29.195312 -1.25 29.195312 -2.652344 L 29.195312 -17.617188 C 29.195312 -19.390625 29.21875 -20.925781 29.265625 -22.210938 C 29.316406 -23.542969 29.371094 -24.433594 29.425781 -24.882812 L 29.441406 -25.003906 L 29.46875 -25.125 C 29.660156 -25.984375 29.996094 -26.6875 30.484375 -27.238281 C 30.820312 -27.613281 31.152344 -27.910156 31.476562 -28.128906 C 32.175781 -28.59375 33.21875 -28.84375 34.605469 -28.882812 C 35.53125 -28.90625 36.515625 -28.90625 37.558594 -28.882812 C 38.429688 -28.863281 39.171875 -28.890625 39.789062 -28.964844 C 39.273438 -28.902344 38.839844 -28.652344 38.488281 -28.214844 C 38.199219 -27.851562 38.054688 -27.472656 38.054688 -27.066406 L 40.671875 -27.066406 L 38.058594 -26.9375 C 38.007812 -27.957031 38.007812 -28.964844 38.058594 -29.960938 L 38.199219 -32.640625 C 38.289062 -34.414062 38.289062 -36.199219 38.199219 -37.996094 C 38.105469 -39.921875 38.054688 -41.839844 38.054688 -43.742188 Z M 38.054688 -43.742188 "/></g></g></g></g><g fill="#ffffff" fill-opacity="1"><g transform="translate(1.357359, 56.484704)"><g><path d="M 40.671875 -43.75 C 40.671875 -41.882812 40.71875 -40.007812 40.8125 -38.125 C 40.90625 -36.238281 40.90625 -34.367188 40.8125 -32.515625 C 40.769531 -31.628906 40.722656 -30.734375 40.671875 -29.828125 C 40.628906 -28.921875 40.628906 -28 40.671875 -27.0625 C 40.671875 -26.644531 40.484375 -26.414062 40.109375 -26.375 C 39.367188 -26.28125 38.5 -26.242188 37.5 -26.265625 C 36.5 -26.285156 35.554688 -26.285156 34.671875 -26.265625 C 33.785156 -26.242188 33.203125 -26.140625 32.921875 -25.953125 C 32.785156 -25.859375 32.625 -25.707031 32.4375 -25.5 C 32.25 -25.289062 32.109375 -24.976562 32.015625 -24.5625 C 31.972656 -24.1875 31.925781 -23.367188 31.875 -22.109375 C 31.832031 -20.859375 31.8125 -19.359375 31.8125 -17.609375 C 31.8125 -15.867188 31.8125 -14.054688 31.8125 -12.171875 C 31.8125 -10.285156 31.8125 -8.503906 31.8125 -6.828125 C 31.8125 -5.160156 31.8125 -3.769531 31.8125 -2.65625 C 31.8125 -1.539062 31.835938 -0.910156 31.890625 -0.765625 C 31.890625 -0.253906 31.675781 0 31.25 0 L 11.796875 0 C 11.421875 0 11.207031 -0.234375 11.15625 -0.703125 C 11.15625 -1.304688 11.164062 -2.328125 11.1875 -3.765625 C 11.21875 -5.210938 11.253906 -6.84375 11.296875 -8.65625 C 11.347656 -10.46875 11.394531 -12.269531 11.4375 -14.0625 C 11.488281 -15.851562 11.523438 -17.398438 11.546875 -18.703125 C 11.566406 -20.003906 11.554688 -20.835938 11.515625 -21.203125 C 11.421875 -21.898438 11.382812 -22.597656 11.40625 -23.296875 C 11.425781 -23.992188 11.179688 -24.597656 10.671875 -25.109375 C 10.253906 -25.484375 9.800781 -25.75 9.3125 -25.90625 C 8.820312 -26.070312 8.320312 -26.179688 7.8125 -26.234375 C 7.394531 -26.273438 6.765625 -26.296875 5.921875 -26.296875 C 5.085938 -26.296875 4.332031 -26.296875 3.65625 -26.296875 C 2.988281 -26.296875 2.65625 -26.296875 2.65625 -26.296875 C 2.226562 -26.296875 2.015625 -26.53125 2.015625 -27 C 2.015625 -27 2.015625 -27.3125 2.015625 -27.9375 C 2.015625 -28.570312 2.003906 -29.269531 1.984375 -30.03125 C 1.960938 -30.800781 1.929688 -31.394531 1.890625 -31.8125 C 1.835938 -32.46875 1.785156 -33.410156 1.734375 -34.640625 C 1.691406 -35.867188 1.671875 -37.144531 1.671875 -38.46875 C 1.671875 -39.800781 1.671875 -40.941406 1.671875 -41.890625 C 1.671875 -42.847656 1.671875 -43.375 1.671875 -43.46875 C 1.671875 -43.738281 1.878906 -43.875 2.296875 -43.875 L 40.53125 -43.875 C 40.53125 -43.875 40.550781 -43.863281 40.59375 -43.84375 C 40.644531 -43.820312 40.671875 -43.789062 40.671875 -43.75 Z M 40.671875 -43.75 "/></g></g></g></g></g><g fill="#222222" fill-opacity="1"><g transform="translate(136.898249, 237.432436)"><g><path d="M 10.589844 2.519531 L 8.851562 0.183594 L 9.121094 -0.0195312 L 9.1875 0.3125 C 8.652344 0.417969 8.128906 0.472656 7.613281 0.472656 C 6.28125 0.472656 5.054688 0.164062 3.941406 -0.457031 C 2.824219 -1.082031 1.941406 -1.949219 1.285156 -3.066406 C 0.628906 -4.183594 0.300781 -5.433594 0.300781 -6.824219 C 0.300781 -8.210938 0.628906 -9.460938 1.285156 -10.570312 C 1.941406 -11.679688 2.824219 -12.546875 3.941406 -13.167969 C 5.054688 -13.789062 6.28125 -14.097656 7.613281 -14.097656 C 8.949219 -14.097656 10.171875 -13.789062 11.289062 -13.167969 C 12.40625 -12.542969 13.285156 -11.679688 13.929688 -10.566406 C 14.570312 -9.457031 14.890625 -8.210938 14.890625 -6.824219 C 14.890625 -5.609375 14.644531 -4.5 14.152344 -3.496094 C 13.65625 -2.484375 12.96875 -1.648438 12.089844 -0.984375 L 11.886719 -1.257812 L 12.144531 -1.472656 L 15.585938 2.65625 L 10.691406 2.65625 Z M 11.132812 2.117188 L 10.863281 2.320312 L 10.863281 1.980469 L 14.863281 1.980469 L 14.863281 2.320312 L 14.601562 2.535156 L 11.398438 -1.3125 L 11.683594 -1.527344 C 12.476562 -2.125 13.097656 -2.878906 13.542969 -3.792969 C 13.992188 -4.703125 14.214844 -5.714844 14.214844 -6.824219 C 14.214844 -8.089844 13.925781 -9.222656 13.34375 -10.230469 C 12.761719 -11.230469 11.96875 -12.015625 10.957031 -12.578125 C 9.945312 -13.140625 8.832031 -13.421875 7.613281 -13.421875 C 6.398438 -13.421875 5.285156 -13.140625 4.273438 -12.578125 C 3.261719 -12.011719 2.460938 -11.230469 1.867188 -10.226562 C 1.273438 -9.222656 0.976562 -8.089844 0.976562 -6.824219 C 0.976562 -5.558594 1.273438 -4.417969 1.867188 -3.410156 C 2.460938 -2.398438 3.261719 -1.613281 4.273438 -1.050781 C 5.285156 -0.484375 6.398438 -0.203125 7.613281 -0.203125 C 8.082031 -0.203125 8.5625 -0.253906 9.054688 -0.351562 L 9.265625 -0.394531 Z M 4.359375 -6.824219 C 4.359375 -5.710938 4.65625 -4.832031 5.246094 -4.179688 C 5.828125 -3.539062 6.621094 -3.21875 7.613281 -3.21875 C 8.597656 -3.21875 9.378906 -3.542969 9.964844 -4.1875 C 10.554688 -4.847656 10.851562 -5.722656 10.851562 -6.824219 C 10.851562 -7.933594 10.554688 -8.816406 9.964844 -9.464844 C 9.378906 -10.105469 8.597656 -10.425781 7.613281 -10.425781 C 6.617188 -10.425781 5.828125 -10.109375 5.246094 -9.472656 C 4.652344 -8.828125 4.359375 -7.945312 4.359375 -6.824219 Z M 3.683594 -6.824219 C 3.683594 -8.121094 4.035156 -9.15625 4.746094 -9.929688 C 5.464844 -10.714844 6.421875 -11.105469 7.613281 -11.105469 C 8.796875 -11.105469 9.746094 -10.710938 10.464844 -9.921875 C 11.175781 -9.140625 11.527344 -8.109375 11.527344 -6.824219 C 11.527344 -5.550781 11.175781 -4.523438 10.464844 -3.734375 C 9.746094 -2.941406 8.796875 -2.542969 7.613281 -2.542969 C 6.421875 -2.542969 5.464844 -2.9375 4.746094 -3.726562 C 4.035156 -4.503906 3.683594 -5.535156 3.683594 -6.824219 Z M 3.683594 -6.824219 "/></g></g></g><g fill="#222222" fill-opacity="1"><g transform="translate(157.461918, 237.432436)"><g><path d="M 4.785156 -13.566406 L 4.785156 -5.449219 C 4.785156 -4.726562 4.953125 -4.175781 5.292969 -3.804688 C 5.625 -3.4375 6.128906 -3.257812 6.804688 -3.257812 C 7.480469 -3.257812 7.988281 -3.441406 8.335938 -3.808594 C 8.6875 -4.179688 8.863281 -4.726562 8.863281 -5.449219 L 8.863281 -13.90625 L 12.84375 -13.90625 L 12.84375 -5.46875 C 12.84375 -4.195312 12.570312 -3.109375 12.019531 -2.21875 C 11.46875 -1.324219 10.730469 -0.652344 9.800781 -0.199219 C 8.886719 0.25 7.867188 0.472656 6.746094 0.472656 C 5.621094 0.472656 4.617188 0.253906 3.726562 -0.191406 C 2.820312 -0.640625 2.105469 -1.316406 1.582031 -2.21875 C 1.0625 -3.113281 0.800781 -4.199219 0.800781 -5.46875 L 0.800781 -13.90625 L 4.785156 -13.90625 Z M 4.105469 -13.566406 L 4.445312 -13.566406 L 4.445312 -13.230469 L 1.140625 -13.230469 L 1.140625 -13.566406 L 1.480469 -13.566406 L 1.480469 -5.46875 C 1.480469 -4.320312 1.707031 -3.347656 2.167969 -2.558594 C 2.621094 -1.769531 3.242188 -1.183594 4.027344 -0.796875 C 4.820312 -0.402344 5.730469 -0.203125 6.746094 -0.203125 C 7.761719 -0.203125 8.683594 -0.402344 9.503906 -0.804688 C 10.316406 -1.203125 10.960938 -1.792969 11.445312 -2.574219 C 11.925781 -3.355469 12.167969 -4.324219 12.167969 -5.46875 L 12.167969 -13.566406 L 12.503906 -13.566406 L 12.503906 -13.230469 L 9.199219 -13.230469 L 9.199219 -13.566406 L 9.539062 -13.566406 L 9.539062 -5.449219 C 9.539062 -4.550781 9.300781 -3.847656 8.828125 -3.34375 C 8.347656 -2.835938 7.675781 -2.582031 6.804688 -2.582031 C 5.929688 -2.582031 5.261719 -2.835938 4.792969 -3.347656 C 4.335938 -3.851562 4.105469 -4.550781 4.105469 -5.449219 Z M 4.105469 -13.566406 "/></g></g></g><g fill="#222222" fill-opacity="1"><g transform="translate(176.421676, 237.432436)"><g><path d="M 4.839844 -10.921875 L 4.839844 -8.175781 L 4.503906 -8.175781 L 4.503906 -8.515625 L 9.269531 -8.515625 L 9.269531 -5.285156 L 4.503906 -5.285156 L 4.503906 -5.625 L 4.839844 -5.625 L 4.839844 -2.648438 L 4.503906 -2.648438 L 4.503906 -2.984375 L 9.847656 -2.984375 L 9.847656 0.339844 L 0.859375 0.339844 L 0.859375 -13.90625 L 9.847656 -13.90625 L 9.847656 -10.582031 L 4.503906 -10.582031 L 4.503906 -10.921875 Z M 4.164062 -11.257812 L 9.507812 -11.257812 L 9.507812 -10.921875 L 9.171875 -10.921875 L 9.171875 -13.566406 L 9.507812 -13.566406 L 9.507812 -13.230469 L 1.199219 -13.230469 L 1.199219 -13.566406 L 1.535156 -13.566406 L 1.535156 0 L 1.199219 0 L 1.199219 -0.339844 L 9.507812 -0.339844 L 9.507812 0 L 9.171875 0 L 9.171875 -2.648438 L 9.507812 -2.648438 L 9.507812 -2.308594 L 4.164062 -2.308594 L 4.164062 -5.960938 L 8.929688 -5.960938 L 8.929688 -5.625 L 8.589844 -5.625 L 8.589844 -8.175781 L 8.929688 -8.175781 L 8.929688 -7.835938 L 4.164062 -7.835938 Z M 4.164062 -11.257812 "/></g></g></g><g fill="#222222" fill-opacity="1"><g transform="translate(192.212256, 237.432436)"><g><path d="M 6.109375 0.472656 C 5.070312 0.472656 4.140625 0.304688 3.3125 -0.0351562 C 2.46875 -0.378906 1.792969 -0.894531 1.285156 -1.574219 C 0.773438 -2.265625 0.5 -3.089844 0.472656 -4.050781 L 0.464844 -4.398438 L 4.636719 -4.398438 L 4.664062 -4.09375 C 4.707031 -3.679688 4.84375 -3.367188 5.078125 -3.160156 C 5.308594 -2.953125 5.621094 -2.851562 6.011719 -2.851562 C 6.421875 -2.851562 6.738281 -2.9375 6.960938 -3.117188 C 7.15625 -3.273438 7.257812 -3.496094 7.257812 -3.789062 C 7.257812 -4.027344 7.179688 -4.222656 7.023438 -4.375 C 6.824219 -4.566406 6.582031 -4.722656 6.292969 -4.851562 C 5.976562 -4.984375 5.519531 -5.144531 4.929688 -5.320312 C 4.035156 -5.597656 3.300781 -5.875 2.730469 -6.152344 C 2.128906 -6.445312 1.613281 -6.878906 1.179688 -7.449219 C 0.734375 -8.039062 0.511719 -8.796875 0.511719 -9.722656 C 0.511719 -11.09375 1.011719 -12.171875 2.015625 -12.953125 C 2.992188 -13.71875 4.25 -14.097656 5.796875 -14.097656 C 7.371094 -14.097656 8.644531 -13.71875 9.621094 -12.953125 C 10.617188 -12.175781 11.148438 -11.097656 11.21875 -9.71875 L 11.238281 -9.363281 L 6.988281 -9.363281 L 6.96875 -9.683594 C 6.949219 -10.023438 6.828125 -10.289062 6.605469 -10.476562 C 6.371094 -10.675781 6.0625 -10.773438 5.683594 -10.773438 C 5.367188 -10.773438 5.117188 -10.695312 4.9375 -10.539062 C 4.769531 -10.394531 4.6875 -10.171875 4.6875 -9.875 C 4.6875 -9.566406 4.839844 -9.320312 5.140625 -9.144531 C 5.53125 -8.910156 6.152344 -8.65625 7.003906 -8.382812 C 7.898438 -8.078125 8.625 -7.789062 9.183594 -7.511719 C 9.78125 -7.21875 10.292969 -6.792969 10.722656 -6.238281 C 11.171875 -5.660156 11.394531 -4.929688 11.394531 -4.039062 C 11.394531 -3.203125 11.179688 -2.441406 10.753906 -1.753906 C 10.328125 -1.070312 9.710938 -0.523438 8.90625 -0.121094 C 8.113281 0.273438 7.179688 0.472656 6.109375 0.472656 Z M 6.109375 -0.203125 C 7.070312 -0.203125 7.90625 -0.378906 8.605469 -0.726562 C 9.292969 -1.074219 9.820312 -1.535156 10.179688 -2.113281 C 10.539062 -2.6875 10.71875 -3.332031 10.71875 -4.039062 C 10.71875 -4.773438 10.539062 -5.367188 10.1875 -5.824219 C 9.820312 -6.296875 9.386719 -6.660156 8.886719 -6.90625 C 8.351562 -7.167969 7.65625 -7.445312 6.796875 -7.738281 C 5.894531 -8.027344 5.226562 -8.304688 4.792969 -8.5625 C 4.273438 -8.871094 4.011719 -9.308594 4.011719 -9.875 C 4.011719 -10.378906 4.171875 -10.769531 4.492188 -11.050781 C 4.800781 -11.316406 5.199219 -11.453125 5.683594 -11.453125 C 6.230469 -11.453125 6.683594 -11.300781 7.042969 -10.996094 C 7.410156 -10.679688 7.613281 -10.257812 7.644531 -9.722656 L 7.304688 -9.703125 L 7.304688 -10.039062 L 10.882812 -10.039062 L 10.882812 -9.703125 L 10.542969 -9.683594 C 10.484375 -10.859375 10.039062 -11.769531 9.203125 -12.421875 C 8.351562 -13.089844 7.214844 -13.421875 5.796875 -13.421875 C 4.40625 -13.421875 3.285156 -13.089844 2.429688 -12.421875 C 1.601562 -11.773438 1.1875 -10.875 1.1875 -9.722656 C 1.1875 -8.945312 1.367188 -8.324219 1.71875 -7.859375 C 2.085938 -7.371094 2.523438 -7.007812 3.027344 -6.757812 C 3.566406 -6.496094 4.265625 -6.234375 5.121094 -5.96875 C 5.738281 -5.785156 6.21875 -5.617188 6.558594 -5.472656 C 6.925781 -5.3125 7.238281 -5.109375 7.492188 -4.863281 C 7.789062 -4.578125 7.933594 -4.21875 7.933594 -3.789062 C 7.933594 -3.28125 7.75 -2.878906 7.382812 -2.585938 C 7.035156 -2.3125 6.578125 -2.175781 6.011719 -2.175781 C 5.449219 -2.175781 4.988281 -2.335938 4.625 -2.65625 C 4.265625 -2.980469 4.054688 -3.433594 3.992188 -4.023438 L 4.328125 -4.058594 L 4.328125 -3.71875 L 0.8125 -3.71875 L 0.8125 -4.058594 L 1.148438 -4.070312 C 1.171875 -3.25 1.398438 -2.554688 1.828125 -1.980469 C 2.261719 -1.398438 2.839844 -0.960938 3.570312 -0.660156 C 4.3125 -0.355469 5.160156 -0.203125 6.109375 -0.203125 Z M 6.109375 -0.203125 "/></g></g></g><g fill="#222222" fill-opacity="1"><g transform="translate(209.432832, 237.432436)"><g><path d="M 11.296875 -13.566406 L 11.296875 -10.582031 L 7.363281 -10.582031 L 7.363281 -10.921875 L 7.703125 -10.921875 L 7.703125 0.339844 L 3.71875 0.339844 L 3.71875 -10.921875 L 4.058594 -10.921875 L 4.058594 -10.582031 L 0.125 -10.582031 L 0.125 -13.90625 L 11.296875 -13.90625 Z M 10.621094 -13.566406 L 10.957031 -13.566406 L 10.957031 -13.230469 L 0.464844 -13.230469 L 0.464844 -13.566406 L 0.800781 -13.566406 L 0.800781 -10.921875 L 0.464844 -10.921875 L 0.464844 -11.257812 L 4.398438 -11.257812 L 4.398438 0 L 4.058594 0 L 4.058594 -0.339844 L 7.363281 -0.339844 L 7.363281 0 L 7.027344 0 L 7.027344 -11.257812 L 10.957031 -11.257812 L 10.957031 -10.921875 L 10.621094 -10.921875 Z M 10.621094 -13.566406 "/></g></g></g><g fill="#222222" fill-opacity="1"><g transform="translate(226.189625, 237.432436)"><g><path d="M 6.109375 0.472656 C 5.070312 0.472656 4.140625 0.304688 3.3125 -0.0351562 C 2.46875 -0.378906 1.792969 -0.894531 1.285156 -1.574219 C 0.773438 -2.265625 0.5 -3.089844 0.472656 -4.050781 L 0.464844 -4.398438 L 4.636719 -4.398438 L 4.664062 -4.09375 C 4.707031 -3.679688 4.84375 -3.367188 5.078125 -3.160156 C 5.308594 -2.953125 5.621094 -2.851562 6.011719 -2.851562 C 6.421875 -2.851562 6.738281 -2.9375 6.960938 -3.117188 C 7.15625 -3.273438 7.257812 -3.496094 7.257812 -3.789062 C 7.257812 -4.027344 7.179688 -4.222656 7.023438 -4.375 C 6.824219 -4.566406 6.582031 -4.722656 6.292969 -4.851562 C 5.976562 -4.984375 5.519531 -5.144531 4.929688 -5.320312 C 4.035156 -5.597656 3.300781 -5.875 2.730469 -6.152344 C 2.128906 -6.445312 1.613281 -6.878906 1.179688 -7.449219 C 0.734375 -8.039062 0.511719 -8.796875 0.511719 -9.722656 C 0.511719 -11.09375 1.011719 -12.171875 2.015625 -12.953125 C 2.992188 -13.71875 4.25 -14.097656 5.796875 -14.097656 C 7.371094 -14.097656 8.644531 -13.71875 9.621094 -12.953125 C 10.617188 -12.175781 11.148438 -11.097656 11.21875 -9.71875 L 11.238281 -9.363281 L 6.988281 -9.363281 L 6.96875 -9.683594 C 6.949219 -10.023438 6.828125 -10.289062 6.605469 -10.476562 C 6.371094 -10.675781 6.0625 -10.773438 5.683594 -10.773438 C 5.367188 -10.773438 5.117188 -10.695312 4.9375 -10.539062 C 4.769531 -10.394531 4.6875 -10.171875 4.6875 -9.875 C 4.6875 -9.566406 4.839844 -9.320312 5.140625 -9.144531 C 5.53125 -8.910156 6.152344 -8.65625 7.003906 -8.382812 C 7.898438 -8.078125 8.625 -7.789062 9.183594 -7.511719 C 9.78125 -7.21875 10.292969 -6.792969 10.722656 -6.238281 C 11.171875 -5.660156 11.394531 -4.929688 11.394531 -4.039062 C 11.394531 -3.203125 11.179688 -2.441406 10.753906 -1.753906 C 10.328125 -1.070312 9.710938 -0.523438 8.90625 -0.121094 C 8.113281 0.273438 7.179688 0.472656 6.109375 0.472656 Z M 6.109375 -0.203125 C 7.070312 -0.203125 7.90625 -0.378906 8.605469 -0.726562 C 9.292969 -1.074219 9.820312 -1.535156 10.179688 -2.113281 C 10.539062 -2.6875 10.71875 -3.332031 10.71875 -4.039062 C 10.71875 -4.773438 10.539062 -5.367188 10.1875 -5.824219 C 9.820312 -6.296875 9.386719 -6.660156 8.886719 -6.90625 C 8.351562 -7.167969 7.65625 -7.445312 6.796875 -7.738281 C 5.894531 -8.027344 5.226562 -8.304688 4.792969 -8.5625 C 4.273438 -8.871094 4.011719 -9.308594 4.011719 -9.875 C 4.011719 -10.378906 4.171875 -10.769531 4.492188 -11.050781 C 4.800781 -11.316406 5.199219 -11.453125 5.683594 -11.453125 C 6.230469 -11.453125 6.683594 -11.300781 7.042969 -10.996094 C 7.410156 -10.679688 7.613281 -10.257812 7.644531 -9.722656 L 7.304688 -9.703125 L 7.304688 -10.039062 L 10.882812 -10.039062 L 10.882812 -9.703125 L 10.542969 -9.683594 C 10.484375 -10.859375 10.039062 -11.769531 9.203125 -12.421875 C 8.351562 -13.089844 7.214844 -13.421875 5.796875 -13.421875 C 4.40625 -13.421875 3.285156 -13.089844 2.429688 -12.421875 C 1.601562 -11.773438 1.1875 -10.875 1.1875 -9.722656 C 1.1875 -8.945312 1.367188 -8.324219 1.71875 -7.859375 C 2.085938 -7.371094 2.523438 -7.007812 3.027344 -6.757812 C 3.566406 -6.496094 4.265625 -6.234375 5.121094 -5.96875 C 5.738281 -5.785156 6.21875 -5.617188 6.558594 -5.472656 C 6.925781 -5.3125 7.238281 -5.109375 7.492188 -4.863281 C 7.789062 -4.578125 7.933594 -4.21875 7.933594 -3.789062 C 7.933594 -3.28125 7.75 -2.878906 7.382812 -2.585938 C 7.035156 -2.3125 6.578125 -2.175781 6.011719 -2.175781 C 5.449219 -2.175781 4.988281 -2.335938 4.625 -2.65625 C 4.265625 -2.980469 4.054688 -3.433594 3.992188 -4.023438 L 4.328125 -4.058594 L 4.328125 -3.71875 L 0.8125 -3.71875 L 0.8125 -4.058594 L 1.148438 -4.070312 C 1.171875 -3.25 1.398438 -2.554688 1.828125 -1.980469 C 2.261719 -1.398438 2.839844 -0.960938 3.570312 -0.660156 C 4.3125 -0.355469 5.160156 -0.203125 6.109375 -0.203125 Z M 6.109375 -0.203125 "/></g></g></g><g fill="#ffffff" fill-opacity="1"><g transform="translate(136.898249, 237.432436)"><g><path d="M 10.859375 2.3125 L 9.125 -0.015625 C 8.601562 0.0859375 8.097656 0.140625 7.609375 0.140625 C 6.335938 0.140625 5.171875 -0.15625 4.109375 -0.75 C 3.046875 -1.34375 2.203125 -2.171875 1.578125 -3.234375 C 0.953125 -4.296875 0.640625 -5.492188 0.640625 -6.828125 C 0.640625 -8.148438 0.953125 -9.335938 1.578125 -10.390625 C 2.203125 -11.453125 3.046875 -12.28125 4.109375 -12.875 C 5.171875 -13.46875 6.335938 -13.765625 7.609375 -13.765625 C 8.890625 -13.765625 10.0625 -13.46875 11.125 -12.875 C 12.1875 -12.28125 13.019531 -11.453125 13.625 -10.390625 C 14.238281 -9.335938 14.546875 -8.148438 14.546875 -6.828125 C 14.546875 -5.660156 14.3125 -4.597656 13.84375 -3.640625 C 13.375 -2.679688 12.722656 -1.882812 11.890625 -1.25 L 14.859375 2.3125 Z M 4.015625 -6.828125 C 4.015625 -5.628906 4.335938 -4.671875 4.984375 -3.953125 C 5.640625 -3.234375 6.515625 -2.875 7.609375 -2.875 C 8.691406 -2.875 9.554688 -3.234375 10.203125 -3.953125 C 10.859375 -4.679688 11.1875 -5.640625 11.1875 -6.828125 C 11.1875 -8.023438 10.859375 -8.976562 10.203125 -9.6875 C 9.554688 -10.40625 8.691406 -10.765625 7.609375 -10.765625 C 6.515625 -10.765625 5.640625 -10.410156 4.984375 -9.703125 C 4.335938 -8.992188 4.015625 -8.035156 4.015625 -6.828125 Z M 4.015625 -6.828125 "/></g></g></g><g fill="#ffffff" fill-opacity="1"><g transform="translate(157.461918, 237.432436)"><g><path d="M 4.453125 -13.5625 L 4.453125 -5.453125 C 4.453125 -4.640625 4.648438 -4.015625 5.046875 -3.578125 C 5.441406 -3.140625 6.023438 -2.921875 6.796875 -2.921875 C 7.578125 -2.921875 8.171875 -3.140625 8.578125 -3.578125 C 8.992188 -4.015625 9.203125 -4.640625 9.203125 -5.453125 L 9.203125 -13.5625 L 12.5 -13.5625 L 12.5 -5.46875 C 12.5 -4.257812 12.238281 -3.234375 11.71875 -2.390625 C 11.207031 -1.554688 10.515625 -0.925781 9.640625 -0.5 C 8.773438 -0.0703125 7.8125 0.140625 6.75 0.140625 C 5.675781 0.140625 4.71875 -0.0664062 3.875 -0.484375 C 3.03125 -0.910156 2.363281 -1.546875 1.875 -2.390625 C 1.382812 -3.234375 1.140625 -4.257812 1.140625 -5.46875 L 1.140625 -13.5625 Z M 4.453125 -13.5625 "/></g></g></g><g fill="#ffffff" fill-opacity="1"><g transform="translate(176.421676, 237.432436)"><g><path d="M 4.5 -10.921875 L 4.5 -8.171875 L 8.921875 -8.171875 L 8.921875 -5.625 L 4.5 -5.625 L 4.5 -2.640625 L 9.515625 -2.640625 L 9.515625 0 L 1.203125 0 L 1.203125 -13.5625 L 9.515625 -13.5625 L 9.515625 -10.921875 Z M 4.5 -10.921875 "/></g></g></g><g fill="#ffffff" fill-opacity="1"><g transform="translate(192.212256, 237.432436)"><g><path d="M 6.109375 0.140625 C 5.117188 0.140625 4.226562 -0.0195312 3.4375 -0.34375 C 2.65625 -0.664062 2.023438 -1.140625 1.546875 -1.765625 C 1.078125 -2.398438 0.832031 -3.164062 0.8125 -4.0625 L 4.328125 -4.0625 C 4.378906 -3.5625 4.550781 -3.175781 4.84375 -2.90625 C 5.144531 -2.644531 5.535156 -2.515625 6.015625 -2.515625 C 6.503906 -2.515625 6.890625 -2.625 7.171875 -2.84375 C 7.453125 -3.070312 7.59375 -3.382812 7.59375 -3.78125 C 7.59375 -4.125 7.476562 -4.40625 7.25 -4.625 C 7.03125 -4.84375 6.753906 -5.019531 6.421875 -5.15625 C 6.097656 -5.300781 5.632812 -5.460938 5.03125 -5.640625 C 4.15625 -5.910156 3.4375 -6.179688 2.875 -6.453125 C 2.320312 -6.722656 1.84375 -7.125 1.4375 -7.65625 C 1.039062 -8.1875 0.84375 -8.875 0.84375 -9.71875 C 0.84375 -10.976562 1.300781 -11.96875 2.21875 -12.6875 C 3.132812 -13.40625 4.328125 -13.765625 5.796875 -13.765625 C 7.296875 -13.765625 8.5 -13.40625 9.40625 -12.6875 C 10.320312 -11.96875 10.8125 -10.972656 10.875 -9.703125 L 7.3125 -9.703125 C 7.28125 -10.140625 7.113281 -10.484375 6.8125 -10.734375 C 6.519531 -10.984375 6.144531 -11.109375 5.6875 -11.109375 C 5.28125 -11.109375 4.953125 -11 4.703125 -10.78125 C 4.460938 -10.570312 4.34375 -10.269531 4.34375 -9.875 C 4.34375 -9.4375 4.546875 -9.09375 4.953125 -8.84375 C 5.367188 -8.601562 6.019531 -8.34375 6.90625 -8.0625 C 7.78125 -7.757812 8.488281 -7.472656 9.03125 -7.203125 C 9.582031 -6.929688 10.054688 -6.535156 10.453125 -6.015625 C 10.859375 -5.503906 11.0625 -4.847656 11.0625 -4.046875 C 11.0625 -3.265625 10.863281 -2.554688 10.46875 -1.921875 C 10.070312 -1.296875 9.5 -0.796875 8.75 -0.421875 C 8.007812 -0.046875 7.128906 0.140625 6.109375 0.140625 Z M 6.109375 0.140625 "/></g></g></g><g fill="#ffffff" fill-opacity="1"><g transform="translate(209.432832, 237.432436)"><g><path d="M 10.953125 -13.5625 L 10.953125 -10.921875 L 7.359375 -10.921875 L 7.359375 0 L 4.0625 0 L 4.0625 -10.921875 L 0.46875 -10.921875 L 0.46875 -13.5625 Z M 10.953125 -13.5625 "/></g></g></g><g fill="#ffffff" fill-opacity="1"><g transform="translate(226.189625, 237.432436)"><g><path d="M 6.109375 0.140625 C 5.117188 0.140625 4.226562 -0.0195312 3.4375 -0.34375 C 2.65625 -0.664062 2.023438 -1.140625 1.546875 -1.765625 C 1.078125 -2.398438 0.832031 -3.164062 0.8125 -4.0625 L 4.328125 -4.0625 C 4.378906 -3.5625 4.550781 -3.175781 4.84375 -2.90625 C 5.144531 -2.644531 5.535156 -2.515625 6.015625 -2.515625 C 6.503906 -2.515625 6.890625 -2.625 7.171875 -2.84375 C 7.453125 -3.070312 7.59375 -3.382812 7.59375 -3.78125 C 7.59375 -4.125 7.476562 -4.40625 7.25 -4.625 C 7.03125 -4.84375 6.753906 -5.019531 6.421875 -5.15625 C 6.097656 -5.300781 5.632812 -5.460938 5.03125 -5.640625 C 4.15625 -5.910156 3.4375 -6.179688 2.875 -6.453125 C 2.320312 -6.722656 1.84375 -7.125 1.4375 -7.65625 C 1.039062 -8.1875 0.84375 -8.875 0.84375 -9.71875 C 0.84375 -10.976562 1.300781 -11.96875 2.21875 -12.6875 C 3.132812 -13.40625 4.328125 -13.765625 5.796875 -13.765625 C 7.296875 -13.765625 8.5 -13.40625 9.40625 -12.6875 C 10.320312 -11.96875 10.8125 -10.972656 10.875 -9.703125 L 7.3125 -9.703125 C 7.28125 -10.140625 7.113281 -10.484375 6.8125 -10.734375 C 6.519531 -10.984375 6.144531 -11.109375 5.6875 -11.109375 C 5.28125 -11.109375 4.953125 -11 4.703125 -10.78125 C 4.460938 -10.570312 4.34375 -10.269531 4.34375 -9.875 C 4.34375 -9.4375 4.546875 -9.09375 4.953125 -8.84375 C 5.367188 -8.601562 6.019531 -8.34375 6.90625 -8.0625 C 7.78125 -7.757812 8.488281 -7.472656 9.03125 -7.203125 C 9.582031 -6.929688 10.054688 -6.535156 10.453125 -6.015625 C 10.859375 -5.503906 11.0625 -4.847656 11.0625 -4.046875 C 11.0625 -3.265625 10.863281 -2.554688 10.46875 -1.921875 C 10.070312 -1.296875 9.5 -0.796875 8.75 -0.421875 C 8.007812 -0.046875 7.128906 0.140625 6.109375 0.140625 Z M 6.109375 0.140625 "/></g></g></g></svg>