<svg xmlns="http://www.w3.org/2000/svg" xmlns:xlink="http://www.w3.org/1999/xlink" width="40" zoomAndPan="magnify" viewBox="0 0 30 30.000001" height="40" preserveAspectRatio="xMidYMid meet" version="1.0"><defs><g/><clipPath id="cc205605b0"><path d="M 1 1 L 2 1 L 2 1.972656 L 1 1.972656 Z M 1 1 " clip-rule="nonzero"/></clipPath><clipPath id="536d15bc3c"><path d="M 1 0.582031 L 4.832031 0.582031 L 4.832031 1.972656 L 1 1.972656 Z M 1 0.582031 " clip-rule="nonzero"/></clipPath><clipPath id="45e06b23b4"><rect x="0" width="5" y="0" height="2"/></clipPath><clipPath id="b8430680b5"><path d="M 0.484375 0.5625 L 29.515625 0.5625 L 29.515625 28 L 0.484375 28 Z M 0.484375 0.5625 " clip-rule="nonzero"/></clipPath></defs><g transform="matrix(1, 0, 0, 1, 14, 18)"><g clip-path="url(#45e06b23b4)"><g clip-path="url(#cc205605b0)"><g fill="#000000" fill-opacity="1"><g transform="translate(0.999999, 1.647207)"><g><path d="M 0.328125 0 L 0.234375 0 L 0.03125 -0.515625 L 0.109375 -0.515625 L 0.265625 -0.09375 L 0.28125 -0.09375 L 0.453125 -0.515625 L 0.53125 -0.515625 Z M 0.328125 0 "/></g></g></g></g><g clip-path="url(#536d15bc3c)"><g fill="#000000" fill-opacity="1"><g transform="translate(1.542467, 1.647207)"><g><path d="M 0.5 -0.234375 L 0.140625 -0.234375 C 0.140625 -0.179688 0.15625 -0.140625 0.1875 -0.109375 C 0.21875 -0.078125 0.253906 -0.0625 0.296875 -0.0625 C 0.335938 -0.0625 0.367188 -0.0664062 0.390625 -0.078125 C 0.410156 -0.0976562 0.425781 -0.117188 0.4375 -0.140625 L 0.453125 -0.140625 L 0.5 -0.109375 C 0.488281 -0.078125 0.460938 -0.046875 0.421875 -0.015625 C 0.390625 0.00390625 0.347656 0.015625 0.296875 0.015625 C 0.253906 0.015625 0.210938 0.00390625 0.171875 -0.015625 C 0.140625 -0.0351562 0.113281 -0.0664062 0.09375 -0.109375 C 0.0703125 -0.148438 0.0625 -0.195312 0.0625 -0.25 C 0.0625 -0.3125 0.0703125 -0.363281 0.09375 -0.40625 C 0.113281 -0.445312 0.140625 -0.476562 0.171875 -0.5 C 0.210938 -0.519531 0.253906 -0.53125 0.296875 -0.53125 C 0.359375 -0.53125 0.410156 -0.507812 0.453125 -0.46875 C 0.492188 -0.4375 0.515625 -0.378906 0.515625 -0.296875 C 0.515625 -0.265625 0.515625 -0.242188 0.515625 -0.234375 Z M 0.4375 -0.296875 C 0.425781 -0.359375 0.410156 -0.398438 0.390625 -0.421875 C 0.367188 -0.453125 0.335938 -0.46875 0.296875 -0.46875 C 0.253906 -0.46875 0.21875 -0.453125 0.1875 -0.421875 C 0.164062 -0.398438 0.148438 -0.359375 0.140625 -0.296875 Z M 0.4375 -0.296875 "/></g></g><g transform="translate(2.098165, 1.647207)"><g><path d="M 0.09375 0 L 0.09375 -0.515625 L 0.171875 -0.515625 L 0.171875 -0.4375 L 0.1875 -0.4375 C 0.207031 -0.5 0.25 -0.53125 0.3125 -0.53125 C 0.34375 -0.53125 0.367188 -0.523438 0.390625 -0.515625 L 0.375 -0.4375 L 0.359375 -0.4375 C 0.335938 -0.445312 0.316406 -0.453125 0.296875 -0.453125 C 0.253906 -0.453125 0.222656 -0.4375 0.203125 -0.40625 C 0.179688 -0.375 0.171875 -0.320312 0.171875 -0.25 L 0.171875 0 Z M 0.09375 0 "/></g></g><g transform="translate(2.500763, 1.647207)"><g><path d="M 0.140625 -0.625 C 0.117188 -0.625 0.101562 -0.628906 0.09375 -0.640625 C 0.0820312 -0.648438 0.078125 -0.664062 0.078125 -0.6875 C 0.078125 -0.695312 0.0820312 -0.703125 0.09375 -0.703125 C 0.101562 -0.710938 0.117188 -0.71875 0.140625 -0.71875 C 0.148438 -0.71875 0.160156 -0.710938 0.171875 -0.703125 C 0.179688 -0.703125 0.1875 -0.695312 0.1875 -0.6875 C 0.1875 -0.664062 0.179688 -0.648438 0.171875 -0.640625 C 0.160156 -0.628906 0.148438 -0.625 0.140625 -0.625 Z M 0.09375 0 L 0.09375 -0.515625 L 0.171875 -0.515625 L 0.171875 0 Z M 0.09375 0 "/></g></g><g transform="translate(2.759238, 1.647207)"><g><path d="M 0.125 0 L 0.125 -0.453125 L 0.03125 -0.453125 L 0.03125 -0.53125 L 0.125 -0.53125 C 0.113281 -0.550781 0.109375 -0.570312 0.109375 -0.59375 C 0.109375 -0.625 0.113281 -0.648438 0.125 -0.671875 C 0.144531 -0.691406 0.164062 -0.707031 0.1875 -0.71875 C 0.21875 -0.726562 0.242188 -0.734375 0.265625 -0.734375 C 0.328125 -0.734375 0.367188 -0.722656 0.390625 -0.703125 L 0.359375 -0.65625 C 0.335938 -0.675781 0.304688 -0.6875 0.265625 -0.6875 C 0.242188 -0.6875 0.222656 -0.675781 0.203125 -0.65625 C 0.191406 -0.644531 0.1875 -0.625 0.1875 -0.59375 C 0.1875 -0.570312 0.191406 -0.550781 0.203125 -0.53125 L 0.359375 -0.53125 L 0.359375 -0.453125 L 0.203125 -0.453125 L 0.203125 0 Z M 0.125 0 "/></g></g><g transform="translate(3.130649, 1.647207)"><g><path d="M 0.140625 -0.625 C 0.117188 -0.625 0.101562 -0.628906 0.09375 -0.640625 C 0.0820312 -0.648438 0.078125 -0.664062 0.078125 -0.6875 C 0.078125 -0.695312 0.0820312 -0.703125 0.09375 -0.703125 C 0.101562 -0.710938 0.117188 -0.71875 0.140625 -0.71875 C 0.148438 -0.71875 0.160156 -0.710938 0.171875 -0.703125 C 0.179688 -0.703125 0.1875 -0.695312 0.1875 -0.6875 C 0.1875 -0.664062 0.179688 -0.648438 0.171875 -0.640625 C 0.160156 -0.628906 0.148438 -0.625 0.140625 -0.625 Z M 0.09375 0 L 0.09375 -0.515625 L 0.171875 -0.515625 L 0.171875 0 Z M 0.09375 0 "/></g></g><g transform="translate(3.389124, 1.647207)"><g><path d="M 0.5 -0.234375 L 0.140625 -0.234375 C 0.140625 -0.179688 0.15625 -0.140625 0.1875 -0.109375 C 0.21875 -0.078125 0.253906 -0.0625 0.296875 -0.0625 C 0.335938 -0.0625 0.367188 -0.0664062 0.390625 -0.078125 C 0.410156 -0.0976562 0.425781 -0.117188 0.4375 -0.140625 L 0.453125 -0.140625 L 0.5 -0.109375 C 0.488281 -0.078125 0.460938 -0.046875 0.421875 -0.015625 C 0.390625 0.00390625 0.347656 0.015625 0.296875 0.015625 C 0.253906 0.015625 0.210938 0.00390625 0.171875 -0.015625 C 0.140625 -0.0351562 0.113281 -0.0664062 0.09375 -0.109375 C 0.0703125 -0.148438 0.0625 -0.195312 0.0625 -0.25 C 0.0625 -0.3125 0.0703125 -0.363281 0.09375 -0.40625 C 0.113281 -0.445312 0.140625 -0.476562 0.171875 -0.5 C 0.210938 -0.519531 0.253906 -0.53125 0.296875 -0.53125 C 0.359375 -0.53125 0.410156 -0.507812 0.453125 -0.46875 C 0.492188 -0.4375 0.515625 -0.378906 0.515625 -0.296875 C 0.515625 -0.265625 0.515625 -0.242188 0.515625 -0.234375 Z M 0.4375 -0.296875 C 0.425781 -0.359375 0.410156 -0.398438 0.390625 -0.421875 C 0.367188 -0.453125 0.335938 -0.46875 0.296875 -0.46875 C 0.253906 -0.46875 0.21875 -0.453125 0.1875 -0.421875 C 0.164062 -0.398438 0.148438 -0.359375 0.140625 -0.296875 Z M 0.4375 -0.296875 "/></g></g><g transform="translate(3.944822, 1.647207)"><g><path d="M 0.265625 0.015625 C 0.234375 0.015625 0.195312 0.00390625 0.15625 -0.015625 C 0.125 -0.0351562 0.0976562 -0.0664062 0.078125 -0.109375 C 0.0664062 -0.148438 0.0625 -0.195312 0.0625 -0.25 C 0.0625 -0.3125 0.0703125 -0.363281 0.09375 -0.40625 C 0.113281 -0.445312 0.140625 -0.476562 0.171875 -0.5 C 0.203125 -0.519531 0.234375 -0.53125 0.265625 -0.53125 C 0.304688 -0.53125 0.335938 -0.523438 0.359375 -0.515625 C 0.390625 -0.503906 0.414062 -0.484375 0.4375 -0.453125 L 0.453125 -0.453125 L 0.453125 -0.71875 L 0.53125 -0.71875 L 0.53125 0 L 0.453125 0 L 0.453125 -0.078125 L 0.4375 -0.078125 C 0.425781 -0.0546875 0.40625 -0.0351562 0.375 -0.015625 C 0.34375 0.00390625 0.304688 0.015625 0.265625 0.015625 Z M 0.28125 -0.0625 C 0.332031 -0.0625 0.375 -0.078125 0.40625 -0.109375 C 0.4375 -0.148438 0.453125 -0.195312 0.453125 -0.25 C 0.453125 -0.320312 0.4375 -0.375 0.40625 -0.40625 C 0.375 -0.445312 0.332031 -0.46875 0.28125 -0.46875 C 0.25 -0.46875 0.21875 -0.445312 0.1875 -0.40625 C 0.15625 -0.375 0.140625 -0.320312 0.140625 -0.25 C 0.140625 -0.125 0.1875 -0.0625 0.28125 -0.0625 Z M 0.28125 -0.0625 "/></g></g></g></g></g></g><g clip-path="url(#b8430680b5)"><path fill="#3e8ffa" d="M 29.015625 15.59375 L 27.585938 17.773438 C 27.367188 18.109375 27.242188 18.496094 27.21875 18.890625 L 27.082031 21.488281 C 27.03125 22.386719 26.457031 23.171875 25.605469 23.496094 L 23.144531 24.429688 C 22.765625 24.570312 22.433594 24.8125 22.179688 25.121094 L 20.527344 27.140625 C 19.953125 27.84375 19.015625 28.144531 18.136719 27.910156 L 15.597656 27.234375 C 15.203125 27.128906 14.792969 27.128906 14.398438 27.234375 L 11.859375 27.910156 C 10.980469 28.144531 10.046875 27.84375 9.46875 27.140625 L 7.816406 25.121094 C 7.5625 24.8125 7.226562 24.570312 6.851562 24.429688 L 4.398438 23.496094 C 3.550781 23.171875 2.972656 22.386719 2.921875 21.488281 L 2.785156 18.890625 C 2.761719 18.496094 2.636719 18.109375 2.417969 17.773438 L 0.988281 15.59375 C 0.492188 14.835938 0.492188 13.867188 0.988281 13.113281 L 2.417969 10.929688 C 2.636719 10.59375 2.761719 10.210938 2.785156 9.8125 L 2.921875 7.214844 C 2.972656 6.320312 3.550781 5.53125 4.398438 5.210938 L 6.851562 4.277344 C 7.230469 4.136719 7.5625 3.894531 7.816406 3.585938 L 9.46875 1.566406 C 10.050781 0.863281 10.988281 0.5625 11.871094 0.796875 L 14.40625 1.46875 C 14.800781 1.574219 15.210938 1.574219 15.605469 1.46875 L 18.140625 0.796875 C 19.019531 0.5625 19.953125 0.863281 20.53125 1.566406 L 22.183594 3.585938 C 22.4375 3.894531 22.773438 4.136719 23.148438 4.277344 L 25.601562 5.210938 C 26.449219 5.53125 27.027344 6.320312 27.078125 7.214844 L 27.214844 9.8125 C 27.238281 10.210938 27.363281 10.59375 27.582031 10.929688 L 29.011719 13.113281 C 29.507812 13.867188 29.507812 14.835938 29.015625 15.59375 Z M 29.015625 15.59375 " fill-opacity="1" fill-rule="nonzero"/></g><path fill="#ffffff" d="M 12.773438 18.515625 L 9.3125 15.425781 C 8.691406 14.867188 8.628906 13.898438 9.203125 13.292969 C 9.757812 12.710938 10.683594 12.671875 11.292969 13.210938 L 13.46875 15.15625 L 18.6875 10.316406 C 19.292969 9.761719 20.234375 9.785156 20.796875 10.382812 C 21.359375 10.980469 21.335938 11.910156 20.730469 12.46875 L 14.226562 18.503906 C 13.816406 18.878906 13.1875 18.882812 12.773438 18.515625 Z M 12.773438 18.515625 " fill-opacity="1" fill-rule="nonzero"/></svg>


